<svg xmlns="http://www.w3.org/2000/svg"  viewBox="0 0 64 64" width="64px" height="64px"><radialGradient id="s5Q01sjP_55bV7RHBudUpa" cx="32" cy="2342" r="33.727" gradientTransform="translate(0 -2310)" gradientUnits="userSpaceOnUse"><stop offset="0" stop-color="#f4e9c3"/><stop offset=".219" stop-color="#f8eecd"/><stop offset=".644" stop-color="#fdf4dc"/><stop offset="1" stop-color="#fff6e1"/></radialGradient><path fill="url(#s5Q01sjP_55bV7RHBudUpa)" d="M0,4L0,4c0-2.209,1.791-4,4-4l0,0c2.209,0,4,1.791,4,4l0,0c0,2.209-1.791,4-4,4l0,0	C1.791,8,0,6.209,0,4z M59.5,64L59.5,64c1.933,0,3.5-1.567,3.5-3.5l0,0c0-1.933-1.567-3.5-3.5-3.5l0,0c-1.933,0-3.5,1.567-3.5,3.5	l0,0C56,62.433,57.567,64,59.5,64z M60,32h-1.5c-0.96,0-1.84-0.39-2.47-1.03C55.39,30.34,55,29.46,55,28.5c0-1.93,1.57-3.5,3.5-3.5	h1c1.24,0,2.37-0.5,3.18-1.32C63.5,22.87,64,21.74,64,20.5c0-2.49-2.01-4.5-4.5-4.5H49c-1.1,0-2.1-0.45-2.83-1.17	C45.45,14.1,45,13.1,45,12c0-2.21,1.79-4,4-4h2c1.1,0,2.1-0.45,2.83-1.17C54.55,6.1,55,5.1,55,4c0-2.21-1.79-4-4-4H15	c-1.1,0-2.1,0.45-2.83,1.17C11.45,1.9,11,2.9,11,4c0,2.21,1.79,4,4,4h2c0.83,0,1.58,0.34,2.12,0.88C19.66,9.42,20,10.17,20,11	c0,1.66-1.34,3-3,3H5.5c-0.96,0-1.84,0.39-2.47,1.03C2.39,15.66,2,16.54,2,17.5C2,19.43,3.57,21,5.5,21H7	c0.83,0,1.58,0.34,2.12,0.88C9.66,22.42,10,23.17,10,24c0,1.66-1.34,3-3,3H5c-1.38,0-2.63,0.56-3.54,1.46C0.56,29.37,0,30.62,0,32	c0,2.76,2.24,5,5,5h4.5c0.96,0,1.84,0.39,2.47,1.03C12.61,38.66,13,39.54,13,40.5c0,1.93-1.57,3.5-3.5,3.5H7	c-1.1,0-2.1,0.45-2.83,1.17C3.45,45.9,3,46.9,3,48c0,2.21,1.79,4,4,4h12.5c1.38,0,2.5,1.12,2.5,2.5c0,0.69-0.28,1.32-0.73,1.77	C20.82,56.72,20.19,57,19.5,57h-7c-0.96,0-1.84,0.39-2.47,1.03C9.39,58.66,9,59.54,9,60.5c0,1.93,1.57,3.5,3.5,3.5h37	c0.96,0,1.84-0.39,2.47-1.03C52.61,62.34,53,61.46,53,60.5c0-1.93-1.57-3.5-3.5-3.5H44c-0.55,0-1.05-0.22-1.41-0.59	C42.22,56.05,42,55.55,42,55c0-1.1,0.9-2,2-2h12c1.1,0,2.1-0.45,2.83-1.17C59.55,51.1,60,50.1,60,49c0-2.21-1.79-4-4-4h-3.5	c-0.69,0-1.32-0.28-1.77-0.73S50,43.19,50,42.5c0-1.38,1.12-2.5,2.5-2.5H60c1.1,0,2.1-0.45,2.83-1.17C63.55,38.1,64,37.1,64,36	C64,33.79,62.21,32,60,32z"/><linearGradient id="s5Q01sjP_55bV7RHBudUpb" x1="32" x2="32" y1="62.064" y2="3.955" gradientTransform="matrix(1 0 0 -1 0 66)" gradientUnits="userSpaceOnUse"><stop offset="0" stop-color="#43bdf2"/><stop offset=".23" stop-color="#41b7f1"/><stop offset=".551" stop-color="#3ca4ed"/><stop offset=".924" stop-color="#3487e6"/><stop offset="1" stop-color="#3280e5"/></linearGradient><circle cx="32" cy="32" r="25" fill="url(#s5Q01sjP_55bV7RHBudUpb)"/><linearGradient id="s5Q01sjP_55bV7RHBudUpc" x1="32" x2="32" y1="60.124" y2="-17.769" gradientTransform="matrix(1 0 0 -1 0 66)" gradientUnits="userSpaceOnUse"><stop offset="0" stop-color="#dff9ff"/><stop offset="0" stop-color="#dff9ff"/><stop offset=".173" stop-color="#d8f8ff"/><stop offset=".423" stop-color="#c5f4ff"/><stop offset=".72" stop-color="#a5eeff"/><stop offset="1" stop-color="#81e7ff"/></linearGradient><path fill="url(#s5Q01sjP_55bV7RHBudUpc)" d="M53,32c0,0.54-0.02,1.09-0.08,1.61c-0.01,0.1-0.01,0.2-0.02,0.3	c-0.01,0.21-0.03,0.42-0.06,0.62c-0.01,0.11-0.03,0.22-0.05,0.33c-0.04,0.31-0.1,0.61-0.15,0.91c-0.06,0.33-0.13,0.67-0.21,1	c-0.02,0.08-0.04,0.16-0.06,0.23c-1.28,5.35-4.64,9.9-9.18,12.77c-2.46,1.56-5.27,2.61-8.27,3.03c-0.02,0-0.04,0.01-0.06,0.01	c-0.05,0.01-0.11,0.02-0.17,0.02c0,0,0,0-0.01,0c-0.45,0.06-0.9,0.1-1.36,0.13C32.88,52.99,32.44,53,32,53	c-0.97,0-1.93-0.07-2.86-0.19c-0.02,0-0.04-0.01-0.06-0.01c-8.98-1.24-16.13-8.16-17.73-17.03c-0.05-0.3-0.11-0.6-0.15-0.91	c-0.02-0.1-0.04-0.22-0.05-0.33c-0.03-0.2-0.05-0.41-0.06-0.62C11.03,33.28,11,32.65,11,32c0-0.92,0.06-1.8,0.17-2.69	c0.01-0.06,0.01-0.12,0.02-0.17c0.03-0.2,0.06-0.4,0.11-0.59c0.02-0.12,0.03-0.24,0.07-0.37c0.06-0.32,0.13-0.64,0.2-0.95	c0.02-0.08,0.04-0.15,0.06-0.23c1.46-6.1,5.61-11.13,11.09-13.84c1.9-0.95,3.95-1.61,6.13-1.91c0.08-0.01,0.15-0.02,0.23-0.03	c0.02,0,0.04-0.01,0.06-0.01c0.03-0.01,0.08-0.01,0.12-0.02c0.46-0.07,0.91-0.11,1.38-0.14C31.08,11.01,31.54,11,32,11	c0.97,0,1.93,0.07,2.86,0.2c0.02,0,0.04,0.01,0.06,0.01c0.08,0.01,0.15,0.02,0.23,0.03c8.85,1.33,15.89,8.19,17.5,16.94	c0.03,0.13,0.04,0.25,0.06,0.37c0.04,0.19,0.07,0.4,0.09,0.59c0.02,0.05,0.02,0.11,0.03,0.17C52.94,30.2,53,31.08,53,32z"/><linearGradient id="s5Q01sjP_55bV7RHBudUpd" x1="4.879" x2="103.819" y1="46.975" y2="46.975" gradientTransform="matrix(1 0 0 -1 0 66)" gradientUnits="userSpaceOnUse"><stop offset="0" stop-color="#eefcff"/><stop offset="0" stop-color="#eefcff"/><stop offset=".173" stop-color="#ebfbff"/><stop offset=".423" stop-color="#e0f9ff"/><stop offset=".705" stop-color="#cef6ff"/><stop offset=".72" stop-color="#cdf6ff"/><stop offset="1" stop-color="#b5f3ff"/></linearGradient><path fill="url(#s5Q01sjP_55bV7RHBudUpd)" d="M31.98,13.61C32.21,15.99,30.34,18,28,18h-7c-0.55,0-1.05,0.22-1.41,0.59	C19.22,18.95,19,19.45,19,20c0,1.1,0.9,2,2,2h0.5c0.69,0,1.32,0.28,1.77,0.73C23.72,23.18,24,23.81,24,24.5c0,1.38-1.12,2.5-2.5,2.5	h-9.87c1.46-6.1,5.61-11.13,11.09-13.84c1.9-0.95,3.95-1.61,6.13-1.91c0.08-0.01,0.15-0.02,0.23-0.03c0.02,0,0.04-0.01,0.06-0.01	c0.03-0.01,0.08-0.01,0.12-0.02c0.46-0.07,0.91-0.11,1.38-0.14C31.38,11.69,31.88,12.59,31.98,13.61z"/><linearGradient id="s5Q01sjP_55bV7RHBudUpe" x1="42.185" x2="42.185" y1="75.039" y2="9.967" gradientTransform="matrix(1 0 0 -1 0 66)" gradientUnits="userSpaceOnUse"><stop offset="0" stop-color="#dff9ff"/><stop offset="0" stop-color="#dff9ff"/><stop offset=".173" stop-color="#d8f8ff"/><stop offset=".423" stop-color="#c5f4ff"/><stop offset=".72" stop-color="#a5eeff"/><stop offset="1" stop-color="#81e7ff"/></linearGradient><path fill="url(#s5Q01sjP_55bV7RHBudUpe)" d="M52.37,37c-1.28,5.35-4.64,9.9-9.18,12.77c-2.46,1.56-5.27,2.61-8.27,3.03	c-0.02,0-0.04,0.01-0.06,0.01c-0.05,0.01-0.11,0.02-0.17,0.02c0,0,0,0-0.01,0c-0.45,0.06-0.9,0.1-1.36,0.13	c-0.05-0.04-0.1-0.08-0.15-0.13C32.45,52.1,32,51.1,32,50c0-2.21,1.79-4,4-4h7.6c0.55,0,1.05-0.22,1.41-0.59	c0.41-0.4,0.63-0.97,0.58-1.59C45.5,42.77,44.54,42,43.49,42H43.1c-0.69,0-1.32-0.28-1.77-0.73c-0.42-0.42-0.69-0.99-0.73-1.62	C40.52,38.2,41.8,37,43.26,37H52.37z"/><linearGradient id="s5Q01sjP_55bV7RHBudUpf" x1="112.603" x2="112.603" y1="370.867" y2="338.891" gradientTransform="scale(1 -1) rotate(-45 -414.667 267.005)" gradientUnits="userSpaceOnUse"><stop offset="0" stop-color="#43bdf2"/><stop offset=".23" stop-color="#41b7f1"/><stop offset=".551" stop-color="#3ca4ed"/><stop offset=".924" stop-color="#3487e6"/><stop offset="1" stop-color="#3280e5"/></linearGradient><path fill="url(#s5Q01sjP_55bV7RHBudUpf)" d="M37.657,37.657c-0.382,0.382-0.856,0.686-1.379,0.884l-13.902,5.162	c-0.58,0.212-1.237,0.064-1.69-0.389c-0.453-0.453-0.601-1.11-0.389-1.69l5.162-13.902c0.198-0.523,0.502-0.997,0.884-1.379	L37.657,37.657z"/><linearGradient id="s5Q01sjP_55bV7RHBudUpg" x1="112.603" x2="112.603" y1="365.875" y2="409.389" gradientTransform="scale(1 -1) rotate(-45 -414.667 267.005)" gradientUnits="userSpaceOnUse"><stop offset="0" stop-color="#ff634d"/><stop offset=".204" stop-color="#fe6464"/><stop offset=".521" stop-color="#fc6581"/><stop offset=".794" stop-color="#fa6694"/><stop offset=".989" stop-color="#fa669a"/><stop offset="1" stop-color="#fa669a"/></linearGradient><path fill="url(#s5Q01sjP_55bV7RHBudUpg)" d="M37.657,37.657L26.343,26.343c0.382-0.382,0.856-0.686,1.379-0.884l13.902-5.162	c0.58-0.212,1.237-0.064,1.69,0.389s0.601,1.11,0.389,1.69l-5.162,13.902C38.343,36.801,38.039,37.275,37.657,37.657z"/><circle cx="32" cy="32" r="3" fill="#fff"/><path fill="#fff" d="M35,11.21V12c0,1.66-1.34,3-3,3c-0.83,0-1.58-0.34-2.12-0.88C29.34,13.58,29,12.83,29,12v-0.78	c0.98-0.15,1.98-0.22,3-0.22S34.02,11.07,35,11.21z"/><path fill="#fff" d="M35,52v0.8c-0.98,0.13-1.98,0.2-3,0.2s-2.02-0.07-3-0.2V52c0-1.66,1.34-3,3-3	c0.83,0,1.58,0.34,2.12,0.88C34.66,50.42,35,51.17,35,52z"/><path fill="#fff" d="M53,32c0,0.57-0.02,1.14-0.08,1.69c-0.01,0.1-0.01,0.21-0.03,0.31c-0.01,0.22-0.03,0.44-0.06,0.65	c-0.01,0.12-0.03,0.23-0.05,0.35H52c-1.66,0-3-1.34-3-3c0-0.83,0.34-1.58,0.88-2.12C50.42,29.34,51.17,29,52,29h0.79	c0.02,0.06,0.02,0.12,0.03,0.18C52.94,30.11,53,31.04,53,32z"/><path fill="#fff" d="M15,32c0,0.83-0.34,1.58-0.88,2.12C13.58,34.66,12.83,35,12,35h-0.79c-0.02-0.11-0.04-0.23-0.05-0.35	c-0.03-0.21-0.05-0.43-0.07-0.65C11.03,33.34,11,32.68,11,32c0-0.96,0.06-1.89,0.18-2.82c0.01-0.06,0.01-0.12,0.02-0.18H12	C13.66,29,15,30.34,15,32z"/></svg>