<svg xmlns="http://www.w3.org/2000/svg"  viewBox="0 0 64 64" width="64px" height="64px"><radialGradient id="CNNZUHPP74eQ4Ix6g_4Ega" cx="32" cy="32" r="32" gradientUnits="userSpaceOnUse" spreadMethod="reflect"><stop offset="0" stop-color="#f4e9c3"/><stop offset=".219" stop-color="#f8eecd"/><stop offset=".644" stop-color="#fdf4dc"/><stop offset="1" stop-color="#fff6e1"/></radialGradient><path fill="url(#CNNZUHPP74eQ4Ix6g_4Ega)" d="M0,4L0,4c0-2.209,1.791-4,4-4h0c2.209,0,4,1.791,4,4v0c0,2.209-1.791,4-4,4h0 C1.791,8,0,6.209,0,4z M59.5,25h-1c-1.933,0-3.5,1.567-3.5,3.5v0c0,1.933,1.567,3.5,3.5,3.5H60c2.209,0,4,1.791,4,4v0 c0,2.209-1.791,4-4,4h-7.5c-1.381,0-2.5,1.119-2.5,2.5v0c0,1.381,1.119,2.5,2.5,2.5H54c2.209,0,4,1.791,4,4v0c0,2.209-1.791,4-4,4 h-5c-1.105,0-2,0.895-2,2v0c0,1.105,0.895,2,2,2h0.5c1.933,0,3.5,1.567,3.5,3.5v0c0,1.933-1.567,3.5-3.5,3.5h-37 C10.567,64,9,62.433,9,60.5v0c0-1.933,1.567-3.5,3.5-3.5h0c1.381,0,2.5-1.119,2.5-2.5v0c0-1.381-1.119-2.5-2.5-2.5H9 c-2.209,0-4-1.791-4-4v0c0-2.209,1.791-4,4-4h0.5c1.933,0,3.5-1.567,3.5-3.5v0c0-1.933-1.567-3.5-3.5-3.5H5c-2.761,0-5-2.239-5-5v0 c0-2.761,2.239-5,5-5h2c1.657,0,3-1.343,3-3v0c0-1.657-1.343-3-3-3H5.5C3.567,21,2,19.433,2,17.5v0C2,15.567,3.567,14,5.5,14H17 c1.657,0,3-1.343,3-3v0c0-1.657-1.343-3-3-3h-2c-2.209,0-4-1.791-4-4v0c0-2.209,1.791-4,4-4l36,0c2.209,0,4,1.791,4,4v0 c0,2.209-1.791,4-4,4h-2c-2.209,0-4,1.791-4,4v0c0,2.209,1.791,4,4,4h10.5c2.485,0,4.5,2.015,4.5,4.5v0C64,22.985,61.985,25,59.5,25 z M59.5,64L59.5,64c1.933,0,3.5-1.567,3.5-3.5v0c0-1.933-1.567-3.5-3.5-3.5h0c-1.933,0-3.5,1.567-3.5,3.5v0 C56,62.433,57.567,64,59.5,64z"/><linearGradient id="CNNZUHPP74eQ4Ix6g_4Egb" x1="32" x2="32" y1="63.505" y2="17.152" gradientUnits="userSpaceOnUse" spreadMethod="reflect"><stop offset="0" stop-color="#3280e5"/><stop offset=".076" stop-color="#3487e6"/><stop offset=".449" stop-color="#3ca4ed"/><stop offset=".77" stop-color="#41b7f1"/><stop offset="1" stop-color="#43bdf2"/></linearGradient><path fill="url(#CNNZUHPP74eQ4Ix6g_4Egb)" d="M32,8C18.8,8,8,18.8,8,32c0,9.9,6.08,18.45,14.68,22.11c0.14,0.05,0.28,0.11,0.42,0.17 c0.79,0.3,1.58-0.49,1.29-1.28c-0.53-1.46-1.23-3.4-1.69-4.65c-0.26-0.71-0.69-1.36-1.27-1.81C16.93,43.26,14,37.96,14,32 c0-9.9,8.1-18,18-18s18,8.1,18,18c0,5.97-2.94,11.28-7.45,14.56c-0.57,0.43-0.99,1.04-1.24,1.72c-0.45,1.25-1.18,3.23-1.72,4.72 c-0.29,0.81,0.51,1.6,1.3,1.28c0.01,0,0.01-0.01,0.01-0.01c0.26-0.1,0.51-0.21,0.77-0.32c0.24-0.1,0.48-0.21,0.71-0.33 C50.42,49.74,56,41.49,56,32C56,18.8,45.2,8,32,8z"/><linearGradient id="CNNZUHPP74eQ4Ix6g_4Egc" x1="32" x2="32" y1="61" y2="27.233" gradientUnits="userSpaceOnUse" spreadMethod="reflect"><stop offset="0" stop-color="#ff634d"/><stop offset=".204" stop-color="#fe6464"/><stop offset=".521" stop-color="#fc6581"/><stop offset=".794" stop-color="#fa6694"/><stop offset=".989" stop-color="#fa669a"/></linearGradient><path fill="url(#CNNZUHPP74eQ4Ix6g_4Egc)" d="M31.988,61c0.897,0,1.699-0.562,2.007-1.406l6.887-18.888c0.263-0.737,0.078-1.56-0.474-2.113 v0c-0.645-0.646-1.641-0.779-2.433-0.326L31.985,42l-5.96-3.733c-0.792-0.453-1.788-0.319-2.433,0.326l0,0 c-0.552,0.553-0.737,1.376-0.474,2.113l6.858,18.885C30.283,60.437,31.085,61,31.984,61H31.988z"/><linearGradient id="CNNZUHPP74eQ4Ix6g_4Egd" x1="-352" x2="-352" y1="36.232" y2="-29.625" gradientTransform="matrix(-1 0 0 1 -320 0)" gradientUnits="userSpaceOnUse" spreadMethod="reflect"><stop offset="0" stop-color="#155cde"/><stop offset=".278" stop-color="#1f7fe5"/><stop offset=".569" stop-color="#279ceb"/><stop offset=".82" stop-color="#2cafef"/><stop offset="1" stop-color="#2eb5f0"/></linearGradient><path fill="url(#CNNZUHPP74eQ4Ix6g_4Egd)" d="M35,6v9c0,1.657-1.343,3-3,3h0c-1.657,0-3-1.343-3-3V6c0-1.657,1.343-3,3-3h0 C33.657,3,35,4.343,35,6z M18,32L18,32c0,1.657-1.343,3-3,3H6c-1.657,0-3-1.343-3-3v0c0-1.657,1.343-3,3-3h9 C16.657,29,18,30.343,18,32z M61,32L61,32c0,1.657-1.343,3-3,3h-9c-1.657,0-3-1.343-3-3v0c0-1.657,1.343-3,3-3h9 C59.657,29,61,30.343,61,32z"/></svg>