<svg xmlns="http://www.w3.org/2000/svg"  viewBox="0 0 64 64" width="64px" height="64px"><radialGradient id="0GTWg15wH8mhst_6TEfoPa" cx="32.501" cy="-494.5" r="27.226" gradientTransform="matrix(1 0 0 -1 0 -468)" gradientUnits="userSpaceOnUse"><stop offset="0" stop-color="#afeeff"/><stop offset=".193" stop-color="#bbf1ff"/><stop offset=".703" stop-color="#d7f8ff"/><stop offset="1" stop-color="#e1faff"/></radialGradient><path fill="url(#0GTWg15wH8mhst_6TEfoPa)" d="M61.991,27.749C61.866,29.054,60.671,30,59.36,30H49.5c-1.466,0-2.634,1.254-2.491,2.749	C47.134,34.054,48.329,35,49.64,35h4.86c1.933,0,3.5,1.567,3.5,3.5l0,0c0,1.933-1.567,3.5-3.5,3.5h-3c-0.83,0-1.5,0.67-1.5,1.5	s0.67,1.5,1.5,1.5H55c1.205,0,2.173,1.072,1.972,2.326C56.814,48.314,55.887,49,54.886,49H39v1H6.5	c-1.466,0-2.634-1.254-2.491-2.749C4.134,45.946,5.329,45,6.64,45H12c0.55,0,1.05-0.22,1.41-0.59	c0.409-0.398,0.635-0.968,0.582-1.587C13.903,41.77,12.945,41,11.888,41H11c-1.832,0-3.286-1.642-2.958-3.536	C8.296,36,9.681,35,11.167,35H14c0.55,0,1.05-0.22,1.41-0.59c0.409-0.398,0.635-0.968,0.582-1.587C15.903,31.77,14.945,31,13.888,31	H6c-2.343,0-4.215-2.015-3.979-4.4C2.227,24.521,4.097,23,6.186,23H15.5c0.83,0,1.5-0.67,1.5-1.5S16.33,20,15.5,20h-2	c-2,0-3.6-1.67-3.5-3.69c0.1-1.89,1.8-3.31,3.7-3.31H18c1.205,0,2.173-1.072,1.972-2.326C19.814,9.686,18.887,9,17.886,9H9	C7.168,9,5.714,7.358,6.042,5.464C6.296,4,7.681,3,9.167,3H49c1.832,0,3.286,1.642,2.958,3.536C51.704,8,50.319,9,48.833,9H46.5	C45.67,9,45,9.67,45,10.5s0.67,1.5,1.5,1.5h11.81c2.349,0,4.45,1.718,4.67,4.057C63.232,18.738,61.131,21,58.5,21H46	c-1.205,0-2.173,1.072-1.972,2.326C44.186,24.314,45.113,25,46.114,25H59.5C60.966,25,62.134,26.254,61.991,27.749z"/><radialGradient id="0GTWg15wH8mhst_6TEfoPb" cx="32.532" cy="-490.021" r="38.069" gradientTransform="matrix(1 0 0 -1 0 -468)" gradientUnits="userSpaceOnUse"><stop offset="0" stop-color="#afeeff"/><stop offset=".193" stop-color="#bbf1ff"/><stop offset=".703" stop-color="#d7f8ff"/><stop offset="1" stop-color="#e1faff"/></radialGradient><circle cx="59" cy="6" r="3" fill="url(#0GTWg15wH8mhst_6TEfoPb)"/><radialGradient id="0GTWg15wH8mhst_6TEfoPc" cx="-31.762" cy="-499.425" r="45.682" gradientTransform="matrix(1 0 0 -1 0 -468)" gradientUnits="userSpaceOnUse"><stop offset="0" stop-color="#afeeff"/><stop offset=".193" stop-color="#bbf1ff"/><stop offset=".703" stop-color="#d7f8ff"/><stop offset="1" stop-color="#e1faff"/></radialGradient><circle cx="3" cy="38" r="3" fill="url(#0GTWg15wH8mhst_6TEfoPc)"/><linearGradient id="0GTWg15wH8mhst_6TEfoPd" x1="32" x2="32" y1="3.66" y2="17.146" gradientTransform="matrix(1 0 0 -1 0 66)" gradientUnits="userSpaceOnUse"><stop offset="0" stop-color="#41bfec"/><stop offset=".232" stop-color="#4cc5ef"/><stop offset=".644" stop-color="#6bd4f6"/><stop offset="1" stop-color="#8ae4fd"/></linearGradient><ellipse cx="32" cy="55" fill="url(#0GTWg15wH8mhst_6TEfoPd)" rx="19" ry="8"/><linearGradient id="0GTWg15wH8mhst_6TEfoPe" x1="24" x2="24" y1="19.192" y2="43.728" gradientTransform="matrix(1 0 0 -1 0 66)" gradientUnits="userSpaceOnUse"><stop offset="0" stop-color="#ffc662"/><stop offset=".004" stop-color="#ffc662"/><stop offset=".609" stop-color="#ffc582"/><stop offset="1" stop-color="#ffc491"/><stop offset="1" stop-color="#ffc491"/></linearGradient><path fill="url(#0GTWg15wH8mhst_6TEfoPe)" d="M19.499,41c-0.558,0-1.117-0.185-1.582-0.565c-1.068-0.874-1.227-2.449-0.352-3.518l9-11	c0.875-1.069,2.45-1.227,3.518-0.352c1.068,0.874,1.227,2.449,0.352,3.518l-9,11C20.94,40.688,20.223,41,19.499,41z"/><linearGradient id="0GTWg15wH8mhst_6TEfoPf" x1="-990" x2="-990" y1="19.192" y2="43.728" gradientTransform="rotate(180 -475 33)" gradientUnits="userSpaceOnUse"><stop offset="0" stop-color="#ffc662"/><stop offset=".004" stop-color="#ffc662"/><stop offset=".609" stop-color="#ffc582"/><stop offset="1" stop-color="#ffc491"/><stop offset="1" stop-color="#ffc491"/></linearGradient><path fill="url(#0GTWg15wH8mhst_6TEfoPf)" d="M44.501,41c-0.724,0-1.441-0.313-1.936-0.917l-9-11c-0.875-1.068-0.717-2.644,0.352-3.518	c1.067-0.876,2.643-0.719,3.518,0.352l9,11c0.875,1.068,0.717,2.644-0.352,3.518C45.618,40.815,45.059,41,44.501,41z"/><linearGradient id="0GTWg15wH8mhst_6TEfoPg" x1="32" x2="32" y1="23.738" y2="69.858" gradientTransform="matrix(1 0 0 -1 0 66)" gradientUnits="userSpaceOnUse"><stop offset="0" stop-color="#ffc662"/><stop offset=".004" stop-color="#ffc662"/><stop offset=".609" stop-color="#ffc582"/><stop offset="1" stop-color="#ffc491"/><stop offset="1" stop-color="#ffc491"/></linearGradient><circle cx="32" cy="14" r="7" fill="url(#0GTWg15wH8mhst_6TEfoPg)"/><linearGradient id="0GTWg15wH8mhst_6TEfoPh" x1="32" x2="32" y1="45.981" y2="61" gradientTransform="matrix(1 0 0 -1 0 66)" gradientUnits="userSpaceOnUse"><stop offset="0" stop-color="#ff8b67"/><stop offset=".847" stop-color="#ffa76a"/><stop offset="1" stop-color="#ffad6b"/><stop offset="1" stop-color="#ffad6b"/></linearGradient><path fill="url(#0GTWg15wH8mhst_6TEfoPh)" d="M39,5h-9c-3.314,0-6,2.686-6,6v7.019c0,1.097,0.884,1.989,1.981,2l0,0	c1.112,0.011,2.019-0.888,2.019-2V12.5c0-1.381,1.119-2.5,2.5-2.5H36c2.209,0,4-1.791,4-4l0,0C40,5.448,39.552,5,39,5z"/><linearGradient id="0GTWg15wH8mhst_6TEfoPi" x1="32" x2="32" y1="9.198" y2="35.503" gradientTransform="matrix(1 0 0 -1 0 66)" gradientUnits="userSpaceOnUse"><stop offset="0" stop-color="#34b171"/><stop offset=".004" stop-color="#34b171"/><stop offset="1" stop-color="#42d778"/></linearGradient><path fill="url(#0GTWg15wH8mhst_6TEfoPi)" d="M31.785,23.003C27.953,23.118,25,26.461,25,30.294V43v11.357c0,1.308,0.941,2.499,2.242,2.63	C28.739,57.137,30,55.966,30,54.5V45c0-1.105,0.895-2,2-2l0,0c1.105,0,2,0.895,2,2v9.357c0,1.308,0.941,2.499,2.242,2.63	C37.739,57.137,39,55.966,39,54.5V43V30C39,26.062,35.749,22.884,31.785,23.003z"/></svg>