<svg xmlns="http://www.w3.org/2000/svg"  viewBox="0 0 64 64" width="64px" height="64px"><radialGradient id="JM~PTmnYZBQla82F3Esrda" cx="32" cy="32" r="32" gradientUnits="userSpaceOnUse" spreadMethod="reflect"><stop offset="0" stop-color="#f4e9c3"/><stop offset=".219" stop-color="#f8eecd"/><stop offset=".644" stop-color="#fdf4dc"/><stop offset="1" stop-color="#fff6e1"/></radialGradient><path fill="url(#JM~PTmnYZBQla82F3Esrda)" d="M0,4L0,4c0-2.209,1.791-4,4-4h0c2.209,0,4,1.791,4,4v0c0,2.209-1.791,4-4,4h0 C1.791,8,0,6.209,0,4z M59.5,25h-1c-1.933,0-3.5,1.567-3.5,3.5v0c0,1.933,1.567,3.5,3.5,3.5H60c2.209,0,4,1.791,4,4v0 c0,2.209-1.791,4-4,4h-7.5c-1.381,0-2.5,1.119-2.5,2.5v0c0,1.381,1.119,2.5,2.5,2.5H54c2.209,0,4,1.791,4,4v0c0,2.209-1.791,4-4,4 h-5c-1.105,0-2,0.895-2,2v0c0,1.105,0.895,2,2,2h0.5c1.933,0,3.5,1.567,3.5,3.5v0c0,1.933-1.567,3.5-3.5,3.5h-37 C10.567,64,9,62.433,9,60.5v0c0-1.933,1.567-3.5,3.5-3.5h0c1.381,0,2.5-1.119,2.5-2.5v0c0-1.381-1.119-2.5-2.5-2.5H9 c-2.209,0-4-1.791-4-4v0c0-2.209,1.791-4,4-4h0.5c1.933,0,3.5-1.567,3.5-3.5v0c0-1.933-1.567-3.5-3.5-3.5H5c-2.761,0-5-2.239-5-5v0 c0-2.761,2.239-5,5-5h2c1.657,0,3-1.343,3-3v0c0-1.657-1.343-3-3-3H5.5C3.567,21,2,19.433,2,17.5v0C2,15.567,3.567,14,5.5,14H17 c1.657,0,3-1.343,3-3v0c0-1.657-1.343-3-3-3h-2c-2.209,0-4-1.791-4-4v0c0-2.209,1.791-4,4-4l36,0c2.209,0,4,1.791,4,4v0 c0,2.209-1.791,4-4,4h-2c-2.209,0-4,1.791-4,4v0c0,2.209,1.791,4,4,4h10.5c2.485,0,4.5,2.015,4.5,4.5v0C64,22.985,61.985,25,59.5,25 z M59.5,64L59.5,64c1.933,0,3.5-1.567,3.5-3.5v0c0-1.933-1.567-3.5-3.5-3.5h0c-1.933,0-3.5,1.567-3.5,3.5v0 C56,62.433,57.567,64,59.5,64z"/><linearGradient id="JM~PTmnYZBQla82F3Esrdb" x1="32.825" x2="32.825" y1="65.478" y2="17.478" gradientUnits="userSpaceOnUse" spreadMethod="reflect"><stop offset="0" stop-color="#3280e5"/><stop offset=".076" stop-color="#3487e6"/><stop offset=".449" stop-color="#3ca4ed"/><stop offset=".77" stop-color="#41b7f1"/><stop offset="1" stop-color="#43bdf2"/></linearGradient><path fill="url(#JM~PTmnYZBQla82F3Esrdb)" d="M35.328,8.228C23.883,6.665,13.661,13.316,9.723,23.107c-0.32,0.796,0.469,1.595,1.275,1.301 c1.487-0.542,3.473-1.266,4.72-1.721c0.705-0.257,1.338-0.693,1.782-1.298c3.788-5.158,10.238-8.253,17.289-7.176 c7.536,1.151,13.634,7.106,14.936,14.617C51.68,40.111,42.939,50,32,50c-5.915,0-11.177-2.898-14.462-7.337 c-0.471-0.636-1.142-1.094-1.886-1.364c-1.251-0.454-3.189-1.158-4.648-1.688c-0.807-0.293-1.592,0.511-1.271,1.307 C13.291,49.735,21.948,56,32,56c14.111,0,25.479-12.342,23.843-26.764C54.62,18.456,46.078,9.696,35.328,8.228z"/><linearGradient id="JM~PTmnYZBQla82F3Esrdc" x1="14.5" x2="14.5" y1="41" y2="17.231" gradientUnits="userSpaceOnUse" spreadMethod="reflect"><stop offset="0" stop-color="#ff634d"/><stop offset=".204" stop-color="#fe6464"/><stop offset=".521" stop-color="#fc6581"/><stop offset=".794" stop-color="#fa6694"/><stop offset=".989" stop-color="#fa669a"/></linearGradient><path fill="url(#JM~PTmnYZBQla82F3Esrdc)" d="M3,32.012c0-0.897,0.562-1.699,1.406-2.007l18.888-6.887c0.737-0.263,1.56-0.078,2.113,0.474 l0,0c0.646,0.645,0.779,1.641,0.326,2.433L22,32.015l3.733,5.96c0.453,0.792,0.319,1.788-0.326,2.433h0 c-0.553,0.552-1.376,0.737-2.113,0.474L4.408,34.024C3.563,33.717,3,32.915,3,32.016V32.012z"/><linearGradient id="JM~PTmnYZBQla82F3Esrdd" x1="45" x2="45" y1="46.401" y2="-29.608" gradientUnits="userSpaceOnUse" spreadMethod="reflect"><stop offset="0" stop-color="#155cde"/><stop offset=".278" stop-color="#1f7fe5"/><stop offset=".569" stop-color="#279ceb"/><stop offset=".82" stop-color="#2cafef"/><stop offset="1" stop-color="#2eb5f0"/></linearGradient><path fill="url(#JM~PTmnYZBQla82F3Esrdd)" d="M32,3L32,3c1.657,0,3,1.343,3,3v9c0,1.657-1.343,3-3,3h0c-1.657,0-3-1.343-3-3V6 C29,4.343,30.343,3,32,3z M32,46L32,46c1.657,0,3,1.343,3,3v9c0,1.657-1.343,3-3,3h0c-1.657,0-3-1.343-3-3v-9 C29,47.343,30.343,46,32,46z M49,29h9c1.657,0,3,1.343,3,3v0c0,1.657-1.343,3-3,3h-9c-1.657,0-3-1.343-3-3v0 C46,30.343,47.343,29,49,29z"/></svg>