<svg xmlns="http://www.w3.org/2000/svg"  viewBox="0 0 64 64" width="64px" height="64px"><radialGradient id="JVU4q8CaOjheQbfbITSZVa" cx="32" cy="4302.5" r="38.273" gradientTransform="translate(0 -4270)" gradientUnits="userSpaceOnUse"><stop offset="0" stop-color="#f4e9c3"/><stop offset=".219" stop-color="#f8eecd"/><stop offset=".644" stop-color="#fdf4dc"/><stop offset="1" stop-color="#fff6e1"/></radialGradient><path fill="url(#JVU4q8CaOjheQbfbITSZVa)" d="M49,21h11.5c2.168,0,3.892-1.998,3.422-4.243C63.58,15.122,62.056,14,60.385,14H57	c-1.105,0-2-0.895-2-2s0.895-2,2-2h1.385c1.67,0,3.195-1.122,3.537-2.757C62.392,4.998,60.668,3,58.5,3H34.006H32.5h-26	C4.575,3,3,4.575,3,6.5S4.575,10,6.5,10H7c1.105,0,2,0.895,2,2s-0.895,2-2,2H4.615c-1.67,0-3.195,1.122-3.537,2.757	C0.608,19.002,2.332,21,4.5,21H18v12H3.615c-1.67,0-3.195,1.122-3.537,2.757C-0.392,38.002,1.332,40,3.5,40H15c1.105,0,2,0.895,2,2	s-0.895,2-2,2H4.5c-2.168,0-3.892,1.998-3.422,4.243C1.42,49.878,2.945,51,4.615,51H7c1.105,0,2,0.895,2,2s-0.895,2-2,2H5.615	c-1.67,0-3.195,1.122-3.537,2.757C1.608,60.002,3.332,62,5.5,62h25.494H32.5h25c1.925,0,3.5-1.575,3.5-3.5S59.425,55,57.5,55H57	c-1.105,0-2-0.895-2-2s0.895-2,2-2h2.385c1.67,0,3.195-1.122,3.537-2.757C63.392,45.998,61.668,44,59.5,44H47V32h13.385	c1.67,0,3.195-1.122,3.537-2.757C64.392,26.998,62.668,25,60.5,25H49c-1.105,0-2-0.895-2-2S47.895,21,49,21z"/><linearGradient id="JVU4q8CaOjheQbfbITSZVb" x1="32" x2="32" y1="54.362" y2="9.822" gradientTransform="matrix(1 0 0 -1 0 66)" gradientUnits="userSpaceOnUse"><stop offset="0" stop-color="#7ddefb"/><stop offset="1" stop-color="#3cb5ea"/></linearGradient><path fill="url(#JVU4q8CaOjheQbfbITSZVb)" d="M57,32c0,2.07-0.25,4.08-0.72,6C54.23,46.31,48.03,52.99,40,55.69	c-0.07,0.02-0.13,0.04-0.2,0.06c-0.2,0.07-0.4,0.14-0.61,0.2c-0.31,0.09-0.63,0.18-0.96,0.26c-0.36,0.1-0.71,0.18-1.07,0.25	c-0.2,0.04-0.41,0.08-0.61,0.12c-0.27,0.05-0.55,0.1-0.83,0.14c-0.39,0.06-0.77,0.11-1.16,0.15c-0.37,0.04-0.73,0.07-1.1,0.09	c-0.11,0-0.23,0.01-0.34,0.01C32.75,56.99,32.37,57,32,57c-0.3,0-0.6-0.01-0.9-0.02c-0.22,0-0.44-0.01-0.66-0.03	c-0.06,0-0.12-0.01-0.19-0.02c-3.27-0.22-6.36-1.07-9.16-2.44C13.32,50.73,7.8,43.04,7.09,34C7.03,33.34,7,32.67,7,32	c0-7.9,3.66-14.93,9.37-19.51c0.84-0.68,1.73-1.31,2.66-1.87c1.03-0.63,2.12-1.18,3.24-1.66c0.75-0.31,1.51-0.59,2.3-0.84	c0.39-0.12,0.78-0.23,1.18-0.33c0.07-0.02,0.15-0.04,0.22-0.05c0.31-0.08,0.61-0.15,0.92-0.21c0.04-0.02,0.09-0.03,0.14-0.03	c0.77-0.16,1.55-0.28,2.34-0.36c0.27-0.03,0.54-0.05,0.82-0.07c0.16-0.01,0.31-0.02,0.47-0.03l0.01,0.01C31.11,7.03,31.55,7,32,7	C45.81,7,57,18.19,57,32z"/><linearGradient id="JVU4q8CaOjheQbfbITSZVc" x1="32.685" x2="32.685" y1="56.791" y2="7.218" gradientTransform="matrix(1 0 0 -1 0 66)" gradientUnits="userSpaceOnUse"><stop offset="0" stop-color="#42d778"/><stop offset=".996" stop-color="#34b171"/><stop offset="1" stop-color="#34b171"/></linearGradient><path fill="url(#JVU4q8CaOjheQbfbITSZVc)" d="M49,37.715v6.576c0,0.531-0.211,1.041-0.587,1.417l-7.826,7.826	C40.211,53.909,40,54.419,40,54.95v0.74c-0.07,0.02-0.13,0.04-0.2,0.06c-0.2,0.07-0.4,0.14-0.61,0.2c-0.31,0.09-0.63,0.18-0.96,0.26	c-0.36,0.1-0.71,0.18-1.07,0.25c-0.2,0.04-0.41,0.08-0.61,0.12c-0.27,0.05-0.55,0.1-0.83,0.14c-0.27,0.05-0.54,0.09-0.82,0.12	c-0.11,0.01-0.23,0.02-0.34,0.03c-0.37,0.04-0.73,0.07-1.1,0.09c-0.11,0-0.23,0.01-0.34,0.01C32.75,56.99,32.37,57,32,57	c-0.3,0-0.6-0.01-0.9-0.02c-0.22,0-0.44-0.01-0.66-0.03c-0.06,0-0.13-0.01-0.19-0.01v-3.98c0-0.531,0.211-1.041,0.587-1.417	l3.213-3.213c0.29-0.29,0.45-0.68,0.45-1.08s-0.16-0.79-0.45-1.08l-2.46-2.46C31.212,43.332,31,42.82,31,42.286V38.33	c0-1.282-1.049-2.33-2.33-2.33h-0.547c-0.796,0-1.559-0.316-2.121-0.879l-8.415-8.415C17.211,26.331,17,25.821,17,25.29v-4.58	c0-0.531,0.211-1.041,0.587-1.417l1.01-1.01C18.855,18.025,19,17.675,19,17.31v-1.62c0-0.365-0.145-0.715-0.403-0.973L16.37,12.49	c0.84-0.68,1.73-1.31,2.66-1.87c1.04-0.64,2.12-1.2,3.24-1.66c0.4-0.18,0.81-0.34,1.23-0.49c0.35-0.13,0.71-0.25,1.07-0.35	c0.09-0.04,0.19-0.07,0.29-0.1c0.29-0.08,0.59-0.16,0.89-0.23c0.38-0.1,0.76-0.19,1.14-0.26c0.04-0.02,0.09-0.03,0.14-0.03	c0.2-0.05,0.41-0.09,0.62-0.13c0.127-0.022,0.256-0.031,0.383-0.051c0.443-0.071,0.888-0.133,1.337-0.179	c0.415-0.046,0.829-0.069,1.281-0.103c0.003,0.001,0.006,0.002,0.009,0.003l7.253,7.253c0.376,0.376,0.587,0.885,0.587,1.417v2.08	c0,0.531-0.211,1.041-0.587,1.417l-6.206,6.206C31.331,25.789,30.821,26,30.29,26H29.5c-1.1,0-2,0.9-2,2v0.546	c0,0.534,0.212,1.047,0.59,1.424l0.44,0.44c0.378,0.378,0.89,0.59,1.425,0.59H42.29c0.531,0,1.041,0.211,1.417,0.587l4.703,4.703	C48.788,36.668,49,37.18,49,37.715z"/><linearGradient id="JVU4q8CaOjheQbfbITSZVd" x1="38.5" x2="38.5" y1="56.787" y2="7.218" gradientTransform="matrix(1 0 0 -1 0 66)" gradientUnits="userSpaceOnUse"><stop offset="0" stop-color="#42d778"/><stop offset=".996" stop-color="#34b171"/><stop offset="1" stop-color="#34b171"/></linearGradient><path fill="url(#JVU4q8CaOjheQbfbITSZVd)" d="M42.5,29h-8c-0.828,0-1.5-0.672-1.5-1.5s0.672-1.5,1.5-1.5h8c0.828,0,1.5,0.672,1.5,1.5	S43.328,29,42.5,29z"/><linearGradient id="JVU4q8CaOjheQbfbITSZVe" x1="-495.617" x2="-494.617" y1="2189.979" y2="2189.979" gradientTransform="rotate(90 37735.58 59821.998) scale(44.54)" gradientUnits="userSpaceOnUse"><stop offset="0" stop-color="#93e4fc"/><stop offset="1" stop-color="#56c3ee"/></linearGradient><path fill="url(#JVU4q8CaOjheQbfbITSZVe)" d="M16.37,12.49L16.37,12.49C10.66,17.07,7,24.1,7,32c0,0.67,0.03,1.34,0.09,2H24	c0.27,0,0.53-0.04,0.78-0.1l-7.19-7.19C17.21,26.33,17,25.82,17,25.29v-4.58l0,0l0,0c0-0.53,0.21-1.04,0.59-1.42l1.01-1.01	c0.26-0.26,0.4-0.6,0.4-0.97v-1.621c0-0.369-0.14-0.709-0.4-0.97L16.37,12.49"/><linearGradient id="JVU4q8CaOjheQbfbITSZVf" x1="-495.617" x2="-494.617" y1="2189.348" y2="2189.348" gradientTransform="rotate(90 37735.58 59821.998) scale(44.54)" gradientUnits="userSpaceOnUse"><stop offset="0" stop-color="#93e4fc"/><stop offset="1" stop-color="#56c3ee"/></linearGradient><path fill="url(#JVU4q8CaOjheQbfbITSZVf)" d="M44,17c-1.657,0-3,1.343-3,3s1.343,3,3,3s3-1.343,3-3S45.657,17,44,17"/><linearGradient id="JVU4q8CaOjheQbfbITSZVg" x1="23.185" x2="23.185" y1="51.213" y2="19.116" gradientTransform="matrix(1 0 0 -1 0 66)" gradientUnits="userSpaceOnUse"><stop offset="0" stop-color="#5cdf8e"/><stop offset=".996" stop-color="#4dbf88"/><stop offset="1" stop-color="#4dbf88"/></linearGradient><path fill="url(#JVU4q8CaOjheQbfbITSZVg)" d="M24,13h3c0.83,0,1.58-0.34,2.12-0.88C29.66,11.58,30,10.83,30,10c0-1.21-0.71-2.25-1.74-2.72	c-0.775,0.117-1.534,0.281-2.284,0.466c-0.002-0.002-0.004-0.004-0.006-0.006l-0.22,0.05c-0.17,0.042-0.335,0.094-0.503,0.141	c-0.107,0.03-0.215,0.059-0.321,0.09c-0.118,0.035-0.238,0.063-0.356,0.1c-0.131,0.042-0.253,0.097-0.383,0.14	c-0.522,0.171-1.036,0.359-1.542,0.563C22.522,8.872,22.392,8.91,22.27,8.96c-0.075,0.033-0.148,0.068-0.223,0.101	C22.031,9.068,22.015,9.073,22,9.08v0.003c-0.647,0.286-1.286,0.585-1.9,0.927c-0.229,0.121-0.459,0.247-0.685,0.379	c-0.129,0.076-0.257,0.153-0.385,0.232c-0.93,0.56-1.82,1.191-2.66,1.87l2.227,2.226C18.855,14.974,19,15.324,19,15.689v1.626	c0,0.362-0.144,0.709-0.4,0.965l-1.013,1.013C17.211,19.669,17,20.178,17,20.71v4.58c0,0.531,0.211,1.041,0.587,1.417L24.78,33.9	c1.444-0.391,2.464-1.82,2.175-3.441C26.696,28.998,25.315,28,23.83,28h-0.17c-1.456,0-2.741-1.195-2.656-2.648	c0.037-0.631,0.308-1.204,0.726-1.621C22.18,23.28,22.81,23,23.5,23h1.334c1.486,0,2.871-1.001,3.124-2.465	C28.285,18.641,26.832,17,25,17h-1c-1.104,0-2-0.895-2-2l0,0C22,13.895,22.896,13,24,13z"/><linearGradient id="JVU4q8CaOjheQbfbITSZVh" x1="26.69" x2="26.69" y1="42.362" y2="33.329" gradientTransform="matrix(1 0 0 -1 0 66)" gradientUnits="userSpaceOnUse"><stop offset="0" stop-color="#7ddefb"/><stop offset="1" stop-color="#3cb5ea"/></linearGradient><path fill="url(#JVU4q8CaOjheQbfbITSZVh)" d="M24.24,50h8.14l-1.54,1.54c-0.38,0.38-0.59,0.89-0.59,1.42v3.97	c-3.27-0.22-6.36-1.07-9.16-2.44C21.03,54.26,21,54.01,21,53.76v-0.52C21,51.45,22.45,50,24.24,50z"/><linearGradient id="JVU4q8CaOjheQbfbITSZVi" x1="48.14" x2="48.14" y1="42.362" y2="22.982" gradientTransform="matrix(1 0 0 -1 0 66)" gradientUnits="userSpaceOnUse"><stop offset="0" stop-color="#7ddefb"/><stop offset="1" stop-color="#3cb5ea"/></linearGradient><path fill="url(#JVU4q8CaOjheQbfbITSZVi)" d="M56.28,38C54.23,46.31,48.03,52.99,40,55.69v-0.74c0-0.53,0.21-1.04,0.59-1.42l7.82-7.82	c0.38-0.38,0.59-0.89,0.59-1.42V38H56.28z"/><linearGradient id="JVU4q8CaOjheQbfbITSZVj" x1="39.625" x2="39.625" y1="45.979" y2="19.646" gradientTransform="matrix(1 0 0 -1 0 66)" gradientUnits="userSpaceOnUse"><stop offset="0" stop-color="#42d778"/><stop offset=".996" stop-color="#34b171"/><stop offset="1" stop-color="#34b171"/></linearGradient><path fill="url(#JVU4q8CaOjheQbfbITSZVj)" d="M49,38v6.29c0,0.53-0.21,1.04-0.59,1.42l-7.82,7.82C40.21,53.91,40,54.42,40,54.95v0.74	c-0.07,0.02-0.13,0.04-0.2,0.06c-0.2,0.07-0.4,0.14-0.61,0.2c-0.31,0.09-0.63,0.18-0.96,0.26c-0.36,0.1-0.71,0.18-1.07,0.25	c-0.2,0.04-0.41,0.08-0.61,0.12c-0.27,0.05-0.55,0.1-0.83,0.14c-0.39,0.06-0.77,0.11-1.16,0.15c-0.37,0.04-0.73,0.07-1.1,0.09	c-0.11,0-0.23,0.01-0.34,0.01C32.75,56.99,32.37,57,32,57c-0.3,0-0.6-0.01-0.9-0.02c-0.22,0-0.44-0.01-0.66-0.03	c-0.06,0-0.12-0.01-0.19-0.02v-3.97c0-0.53,0.21-1.04,0.59-1.42L32.38,50h7.12c0.69,0,1.32-0.28,1.77-0.73S42,48.19,42,47.5	c0-1.38-1.12-2.5-2.5-2.5h-1c-2,0-3.6-1.67-3.5-3.69c0.1-1.89,1.8-3.31,3.7-3.31H49z"/></svg>