<svg xmlns="http://www.w3.org/2000/svg"  viewBox="0 0 64 64" width="64px" height="64px"><radialGradient id="7sQAKqjfxRoVFtn7IYzyka" cx="32.002" cy="34" r="32.001" gradientTransform="matrix(1 0 0 -1 0 66)" gradientUnits="userSpaceOnUse"><stop offset="0" stop-color="#afeeff"/><stop offset=".193" stop-color="#bbf1ff"/><stop offset=".703" stop-color="#d7f8ff"/><stop offset="1" stop-color="#e1faff"/></radialGradient><path fill="url(#7sQAKqjfxRoVFtn7IYzyka)" d="M63.98,48.04C64.25,50.72,62.13,53,59.5,53h-5c-1.47,0-2.64,1.26-2.49,2.76	c0.13,1.3,1.33,2.24,2.63,2.24H58c1.71,0,3.08,1.42,3,3.16C60.91,62.78,59.46,64,57.84,64H5c-1.71,0-3.08-1.42-3-3.16	C2.09,59.22,3.54,58,5.16,58H6c1.1,0,2.1-0.45,2.83-1.17C9.55,56.1,10,55.1,10,54c0-2.21-1.79-4-4-4H3c-0.83,0-1.58-0.34-2.12-0.88	C0.34,48.58,0,47.83,0,47c0-0.79,0.31-1.51,0.81-2.04C1.35,44.37,2.13,44,3,44h11c1.1,0,4,0,4-2c0-3-1.79-3-4-3H4	c-2.34,0-4.21-2.01-3.98-4.39C0.22,32.53,2.08,31,4.17,31H9.5c0.96,0,1.84-0.39,2.47-1.03C12.61,29.34,13,27.46,13,26.5	c0-1.93-1.57-3.5-3.5-3.5l-2.91,0.01c-0.05,0-0.09,0-0.14-0.01c-1.09-0.05-2.07-0.76-2.36-1.81c-0.44-1.66,0.82-3.18,2.41-3.18H9	c1.21,0,2.18-1.09,1.97-2.34c-0.16-0.99-1.09-1.66-2.09-1.66H4c-1.85,0-3.32-1.69-2.94-3.6c0.28-1.43,1.62-2.4,3.07-2.4L15.5,8	C16.33,8,17,7.33,17,6.5S16.33,5,15.5,5h-2.9c-1.14,0-2.21-0.72-2.51-1.82C9.64,1.52,10.9,0,12.5,0h40.9c1.14,0,2.21,0.72,2.51,1.82	C56.36,3.48,55.1,5,53.5,5h-1c-0.69,0-1.32,0.28-1.77,0.73C50.31,6.15,50.04,6.72,50,7.35C49.92,8.8,51.2,10,52.66,10H61	c1.85,0,3.32,1.69,2.94,3.6c-0.28,1.43-1.62,2.4-3.07,2.4H59c-0.55,0-1.05,0.22-1.41,0.59C57.22,16.95,57,17.45,57,18	c0,1.1,0.9,2,2,2h1.5c1.47,0,2.64,1.26,2.49,2.76c-0.13,1.3-1.32,2.24-2.63,2.24H54c-0.83,0-1.58,0.34-2.12,0.88	C51.34,26.42,51,28.17,51,29c0,1.66,1.34,3,3,3h6c2.34,0,4.21,2.01,3.98,4.39c-0.2,2.08-2.06,3.61-4.15,3.61H50	c-0.55,0-1.05,0.22-1.41,0.59C48.22,40.95,48,41.45,48,42c0,1.1,0.9,2,2,2h9.29C61.63,44,63.74,45.7,63.98,48.04z"/><linearGradient id="7sQAKqjfxRoVFtn7IYzykb" x1="31.5" x2="31.5" y1="43.656" y2="-19.077" gradientTransform="matrix(1 0 0 -1 0 66)" gradientUnits="userSpaceOnUse"><stop offset="0" stop-color="#42d778"/><stop offset="1" stop-color="#34b171"/></linearGradient><path fill="url(#7sQAKqjfxRoVFtn7IYzykb)" d="M54.24,33.59l2.346-2.346C57.491,30.339,58,29.111,58,27.83v-0.66	c0-1.281-0.509-2.509-1.414-3.414l-2.341-2.342C53.339,20.509,52.111,20,50.83,20H18.17c-1.281,0-2.509,0.509-3.414,1.414	l-1.341,1.342C12.509,23.661,12,24.889,12,26.17v1.661c0,0.217-0.086,0.426-0.24,0.579l-5.346,5.346C5.509,34.661,5,35.889,5,37.17	v1.666c0,1.277,0.507,2.501,1.41,3.404L8.17,44l1.426,1.426c0.943,0.943,2.2,1.64,3.531,1.575C13.607,46.977,14,47.356,14,47.83v3	c0,1.281,0.509,2.509,1.414,3.414l2.342,2.342C18.661,57.491,19.889,58,21.17,58h8.666c1.277,0,2.501-0.507,3.404-1.41l3.35-3.35	c0.154-0.154,0.362-0.24,0.579-0.24h1.661c0.217,0,0.426,0.086,0.579,0.24l4.346,4.346C44.661,58.491,45.889,59,47.17,59h3	c2.657,0,4.83-2.174,4.83-4.83v-1c0-1.28-0.509-2.508-1.414-3.414L53.27,49.44c-0.31-0.31-0.33-0.8-0.05-1.13l2.6-3.02	c1.28-1.49,1.48-3.6,0.64-5.29c-0.22-0.46-0.52-0.89-0.9-1.27l-1.32-1.32C54.086,37.256,54,37.048,54,36.831V34.17	C54,33.952,54.086,33.744,54.24,33.59z"/><linearGradient id="7sQAKqjfxRoVFtn7IYzykc" x1="49" x2="49" y1="20.745" y2="46.916" gradientTransform="matrix(1 0 0 -1 0 66)" gradientUnits="userSpaceOnUse"><stop offset="0" stop-color="#34b171"/><stop offset=".004" stop-color="#34b171"/><stop offset="1" stop-color="#42d778"/></linearGradient><path fill="url(#7sQAKqjfxRoVFtn7IYzykc)" d="M58,27.17v0.66c0,1.29-0.5,2.5-1.41,3.41l-2.35,2.35C54.09,33.74,54,33.95,54,34.17v2.66	c0,0.22,0.09,0.43,0.24,0.58l1.32,1.32c0.38,0.38,0.68,0.81,0.9,1.27H46c-2.34,0-4.21-2.01-3.98-4.39c0.2-2.08,2.06-3.61,4.15-3.61	H47c0.83,0,1.58-0.34,2.12-0.88C49.66,30.58,50,29.83,50,29c0-1.66-1.34-3-3-3h-7v-6h10.83c1.29,0,2.5,0.5,3.41,1.41l2.35,2.35	C57.5,24.67,58,25.88,58,27.17z"/><linearGradient id="7sQAKqjfxRoVFtn7IYzykd" x1="33" x2="33" y1="20.745" y2="46.916" gradientTransform="matrix(1 0 0 -1 0 66)" gradientUnits="userSpaceOnUse"><stop offset="0" stop-color="#34b171"/><stop offset=".004" stop-color="#34b171"/><stop offset="1" stop-color="#42d778"/></linearGradient><ellipse cx="33" cy="36" fill="url(#7sQAKqjfxRoVFtn7IYzykd)" rx="5" ry="4"/><linearGradient id="7sQAKqjfxRoVFtn7IYzyke" x1="33" x2="33" y1="27.037" y2="72.971" gradientTransform="matrix(1 0 0 -1 0 66)" gradientUnits="userSpaceOnUse"><stop offset="0" stop-color="#ff634d"/><stop offset=".204" stop-color="#fe6464"/><stop offset=".521" stop-color="#fc6581"/><stop offset=".794" stop-color="#fa6694"/><stop offset=".989" stop-color="#fa669a"/><stop offset="1" stop-color="#fa669a"/></linearGradient><path fill="url(#7sQAKqjfxRoVFtn7IYzyke)" d="M33,2c-7.182,0-13,5.704-13,12.734c0,5.464,7.855,16.717,11.353,21.458	c0.796,1.078,2.499,1.078,3.293,0C38.145,31.45,46,20.192,46,14.734C46,7.704,40.182,2,33,2z"/><path fill="#fff" d="M33,9c-3.314,0-6,2.686-6,6s2.686,6,6,6s6-2.686,6-6S36.314,9,33,9z"/><linearGradient id="7sQAKqjfxRoVFtn7IYzykf" x1="18.585" x2="18.585" y1="27.17" y2="-2.747" gradientTransform="matrix(1 0 0 -1 0 66)" gradientUnits="userSpaceOnUse"><stop offset="0" stop-color="#5cdf8e"/><stop offset=".996" stop-color="#4dbf88"/><stop offset="1" stop-color="#4dbf88"/></linearGradient><path fill="url(#7sQAKqjfxRoVFtn7IYzykf)" d="M29,58h-7.84c-1.27,0-2.5-0.51-3.4-1.41l-2.35-2.35c-0.9-0.9-1.41-2.13-1.41-3.4v-3.01	c0-0.46-0.38-0.83-0.84-0.83c-1.29,0-2.49-0.5-3.4-1.41L8.17,44h13.67c1.62,0,3.07,1.22,3.16,2.84c0.08,1.74-1.29,3.16-3,3.16h-1	c-0.12,0-0.23,0.01-0.34,0.03c-0.02,0-0.04,0.01-0.06,0.01c-0.84,0.17-1.49,0.87-1.59,1.74C19,51.85,19,51.92,19,52	c0,0.55,0.22,1.05,0.59,1.41C19.95,53.78,20.45,54,21,54h4C27.21,54,29,55.79,29,58z"/><circle cx="23.5" cy="43.5" r="3.5" fill="#fff"/></svg>