<svg xmlns="http://www.w3.org/2000/svg"  viewBox="0 0 64 64" width="64px" height="64px"><radialGradient id="D6TvlvwN42MVgths_~Gwfa" cx="32" cy="32" r="32" gradientUnits="userSpaceOnUse" spreadMethod="reflect"><stop offset="0" stop-color="#f4e9c3"/><stop offset=".219" stop-color="#f8eecd"/><stop offset=".644" stop-color="#fdf4dc"/><stop offset="1" stop-color="#fff6e1"/></radialGradient><path fill="url(#D6TvlvwN42MVgths_~Gwfa)" d="M0,4L0,4c0-2.209,1.791-4,4-4h0c2.209,0,4,1.791,4,4v0c0,2.209-1.791,4-4,4h0 C1.791,8,0,6.209,0,4z M59.5,25h-1c-1.933,0-3.5,1.567-3.5,3.5v0c0,1.933,1.567,3.5,3.5,3.5H60c2.209,0,4,1.791,4,4v0 c0,2.209-1.791,4-4,4h-7.5c-1.381,0-2.5,1.119-2.5,2.5v0c0,1.381,1.119,2.5,2.5,2.5H54c2.209,0,4,1.791,4,4v0c0,2.209-1.791,4-4,4 h-5c-1.105,0-2,0.895-2,2v0c0,1.105,0.895,2,2,2h0.5c1.933,0,3.5,1.567,3.5,3.5v0c0,1.933-1.567,3.5-3.5,3.5h-37 C10.567,64,9,62.433,9,60.5v0c0-1.933,1.567-3.5,3.5-3.5h0c1.381,0,2.5-1.119,2.5-2.5v0c0-1.381-1.119-2.5-2.5-2.5H9 c-2.209,0-4-1.791-4-4v0c0-2.209,1.791-4,4-4h0.5c1.933,0,3.5-1.567,3.5-3.5v0c0-1.933-1.567-3.5-3.5-3.5H5c-2.761,0-5-2.239-5-5v0 c0-2.761,2.239-5,5-5h2c1.657,0,3-1.343,3-3v0c0-1.657-1.343-3-3-3H5.5C3.567,21,2,19.433,2,17.5v0C2,15.567,3.567,14,5.5,14H17 c1.657,0,3-1.343,3-3v0c0-1.657-1.343-3-3-3h-2c-2.209,0-4-1.791-4-4v0c0-2.209,1.791-4,4-4l36,0c2.209,0,4,1.791,4,4v0 c0,2.209-1.791,4-4,4h-2c-2.209,0-4,1.791-4,4v0c0,2.209,1.791,4,4,4h10.5c2.485,0,4.5,2.015,4.5,4.5v0C64,22.985,61.985,25,59.5,25 z M59.5,64L59.5,64c1.933,0,3.5-1.567,3.5-3.5v0c0-1.933-1.567-3.5-3.5-3.5h0c-1.933,0-3.5,1.567-3.5,3.5v0 C56,62.433,57.567,64,59.5,64z"/><linearGradient id="D6TvlvwN42MVgths_~Gwfb" x1="32.825" x2="32.825" y1="65.478" y2="17.478" gradientTransform="matrix(-1 0 0 1 64 0)" gradientUnits="userSpaceOnUse" spreadMethod="reflect"><stop offset="0" stop-color="#3280e5"/><stop offset=".076" stop-color="#3487e6"/><stop offset=".449" stop-color="#3ca4ed"/><stop offset=".77" stop-color="#41b7f1"/><stop offset="1" stop-color="#43bdf2"/></linearGradient><path fill="url(#D6TvlvwN42MVgths_~Gwfb)" d="M28.672,8.228c11.445-1.563,21.667,5.089,25.605,14.879c0.32,0.796-0.469,1.595-1.275,1.301 c-1.487-0.542-3.473-1.266-4.72-1.721c-0.705-0.257-1.338-0.693-1.782-1.298c-3.788-5.158-10.238-8.253-17.289-7.176 c-7.536,1.151-13.634,7.106-14.936,14.617C12.32,40.111,21.061,50,32,50c5.915,0,11.177-2.898,14.462-7.337 c0.471-0.636,1.142-1.094,1.886-1.364c1.251-0.454,3.189-1.158,4.648-1.688c0.807-0.293,1.592,0.511,1.271,1.307 C50.709,49.735,42.052,56,32,56C17.889,56,6.521,43.658,8.157,29.236C9.38,18.456,17.922,9.696,28.672,8.228z"/><linearGradient id="D6TvlvwN42MVgths_~Gwfc" x1="14.5" x2="14.5" y1="41" y2="17.231" gradientTransform="matrix(-1 0 0 1 64 0)" gradientUnits="userSpaceOnUse" spreadMethod="reflect"><stop offset="0" stop-color="#ff634d"/><stop offset=".204" stop-color="#fe6464"/><stop offset=".521" stop-color="#fc6581"/><stop offset=".794" stop-color="#fa6694"/><stop offset=".989" stop-color="#fa669a"/></linearGradient><path fill="url(#D6TvlvwN42MVgths_~Gwfc)" d="M61,32.012c0-0.897-0.562-1.699-1.406-2.007l-18.888-6.887 c-0.737-0.263-1.56-0.078-2.113,0.474v0c-0.646,0.645-0.779,1.641-0.326,2.433L42,32.015l-3.733,5.96 c-0.453,0.792-0.319,1.788,0.326,2.433l0,0c0.553,0.552,1.376,0.737,2.113,0.474l18.885-6.858C60.437,33.717,61,32.915,61,32.016 V32.012z"/><linearGradient id="D6TvlvwN42MVgths_~Gwfd" x1="45" x2="45" y1="46.401" y2="-29.608" gradientTransform="matrix(-1 0 0 1 64 0)" gradientUnits="userSpaceOnUse" spreadMethod="reflect"><stop offset="0" stop-color="#155cde"/><stop offset=".278" stop-color="#1f7fe5"/><stop offset=".569" stop-color="#279ceb"/><stop offset=".82" stop-color="#2cafef"/><stop offset="1" stop-color="#2eb5f0"/></linearGradient><path fill="url(#D6TvlvwN42MVgths_~Gwfd)" d="M35,6v9c0,1.657-1.343,3-3,3h0c-1.657,0-3-1.343-3-3V6c0-1.657,1.343-3,3-3h0 C33.657,3,35,4.343,35,6z M35,49v9c0,1.657-1.343,3-3,3h0c-1.657,0-3-1.343-3-3v-9c0-1.657,1.343-3,3-3h0C33.657,46,35,47.343,35,49 z M18,32L18,32c0,1.657-1.343,3-3,3H6c-1.657,0-3-1.343-3-3v0c0-1.657,1.343-3,3-3h9C16.657,29,18,30.343,18,32z"/></svg>