<svg xmlns="http://www.w3.org/2000/svg"  viewBox="0 0 64 64" width="64px" height="64px"><radialGradient id="Pqxcj0tXKtLCZh2XxETYta" cx="32" cy="2342.5" r="38.273" gradientTransform="translate(0 -2310)" gradientUnits="userSpaceOnUse"><stop offset="0" stop-color="#f4e9c3"/><stop offset=".219" stop-color="#f8eecd"/><stop offset=".644" stop-color="#fdf4dc"/><stop offset="1" stop-color="#fff6e1"/></radialGradient><path fill="url(#Pqxcj0tXKtLCZh2XxETYta)" d="M49,21h11.5c2.168,0,3.892-1.998,3.422-4.243C63.58,15.122,62.056,14,60.385,14H57	c-1.105,0-2-0.895-2-2s0.895-2,2-2h1.385c1.67,0,3.195-1.122,3.537-2.757C62.392,4.998,60.668,3,58.5,3H34.006H32.5h-26	C4.575,3,3,4.575,3,6.5S4.575,10,6.5,10H7c1.105,0,2,0.895,2,2s-0.895,2-2,2H4.615c-1.67,0-3.195,1.122-3.537,2.757	C0.608,19.002,2.332,21,4.5,21H18v12H3.615c-1.67,0-3.195,1.122-3.537,2.757C-0.392,38.002,1.332,40,3.5,40H15c1.105,0,2,0.895,2,2	s-0.895,2-2,2H4.5c-2.168,0-3.892,1.998-3.422,4.243C1.42,49.878,2.945,51,4.615,51H7c1.105,0,2,0.895,2,2s-0.895,2-2,2H5.615	c-1.67,0-3.195,1.122-3.537,2.757C1.608,60.002,3.332,62,5.5,62h25.494H32.5h25c1.925,0,3.5-1.575,3.5-3.5S59.425,55,57.5,55H57	c-1.105,0-2-0.895-2-2s0.895-2,2-2h2.385c1.67,0,3.195-1.122,3.537-2.757C63.392,45.998,61.668,44,59.5,44H47V32h13.385	c1.67,0,3.195-1.122,3.537-2.757C64.392,26.998,62.668,25,60.5,25H49c-1.105,0-2-0.895-2-2S47.895,21,49,21z"/><linearGradient id="Pqxcj0tXKtLCZh2XxETYtb" x1="32" x2="32" y1="95.714" y2="8.548" gradientTransform="matrix(1 0 0 -1 0 66)" gradientUnits="userSpaceOnUse"><stop offset="0" stop-color="#dff9ff"/><stop offset="0" stop-color="#dff9ff"/><stop offset=".426" stop-color="#d8f8ff"/><stop offset=".631" stop-color="#c5f4ff"/><stop offset=".834" stop-color="#a5eeff"/><stop offset="1" stop-color="#81e7ff"/></linearGradient><path fill="url(#Pqxcj0tXKtLCZh2XxETYtb)" d="M55.5,32c0,5.4-1.82,10.37-4.89,14.34C46.32,51.91,39.58,55.5,32,55.5s-14.32-3.59-18.61-9.16	C10.32,42.37,8.5,37.4,8.5,32c0-5.35,1.79-10.28,4.8-14.23C17.59,12.13,24.37,8.5,32,8.5s14.41,3.63,18.7,9.27	C53.71,21.72,55.5,26.65,55.5,32z"/><linearGradient id="Pqxcj0tXKtLCZh2XxETYtc" x1="32" x2="32" y1="9" y2="59" gradientTransform="matrix(1 0 0 -1 0 66)" gradientUnits="userSpaceOnUse"><stop offset="0" stop-color="#155cde"/><stop offset="1" stop-color="#2eb5f0"/></linearGradient><path fill="url(#Pqxcj0tXKtLCZh2XxETYtc)" d="M52.744,45.925C55.526,41.806,57,37.029,57,32c0-4.969-1.443-9.701-4.165-13.795l0.055-0.034	l-0.996-1.31C47.127,10.595,39.876,7,32,7c-1.477,0-2.931,0.126-4.352,0.373c-0.947,0.164-1.879,0.382-2.792,0.652	C24.4,8.16,23.948,8.307,23.501,8.468c-4.466,1.604-8.416,4.477-11.395,8.393c-0.001,0.001-0.002,0.003-0.003,0.004l-0.994,1.306	l0.055,0.034C8.443,22.3,7,27.032,7,32c0,5.031,1.475,9.809,4.257,13.925l-0.053,0.034l0.998,1.296C16.971,53.448,24.188,57,32,57	c0.977,0,1.944-0.056,2.898-0.165c0.557-0.064,1.109-0.151,1.657-0.252c6.018-1.099,11.418-4.361,15.242-9.326	c0.001-0.002,0.002-0.003,0.004-0.005l0.996-1.294L52.744,45.925z M47.979,47.108c-0.109,0.116-0.217,0.233-0.328,0.346	c-0.184,0.187-0.373,0.368-0.562,0.548c-0.104,0.099-0.206,0.2-0.312,0.297c-0.218,0.199-0.442,0.39-0.667,0.579	c-0.083,0.07-0.163,0.143-0.246,0.211c-0.626,0.511-1.278,0.985-1.952,1.421c-0.093,0.06-0.189,0.115-0.283,0.174	c-0.244,0.152-0.488,0.303-0.738,0.445c-0.126,0.072-0.255,0.138-0.382,0.208c-0.222,0.121-0.445,0.242-0.672,0.355	c-0.141,0.071-0.285,0.137-0.428,0.204c-0.217,0.103-0.435,0.204-0.655,0.299c-0.152,0.066-0.305,0.128-0.458,0.19	c-0.216,0.088-0.433,0.173-0.652,0.254c-0.159,0.059-0.319,0.115-0.479,0.17c-0.218,0.075-0.438,0.146-0.659,0.214	c-0.094,0.029-0.189,0.056-0.284,0.084c1.985-1.997,3.643-4.938,4.824-8.523c1.901,0.575,3.681,1.293,5.275,2.151	C48.208,46.86,48.095,46.985,47.979,47.108z M24.828,52.806c-0.156-0.053-0.311-0.108-0.466-0.165	c-0.224-0.083-0.447-0.17-0.668-0.26c-0.148-0.06-0.296-0.12-0.443-0.184c-0.227-0.098-0.452-0.203-0.676-0.309	c-0.136-0.064-0.272-0.127-0.407-0.194c-0.238-0.119-0.472-0.245-0.705-0.372c-0.116-0.063-0.233-0.124-0.348-0.189	c-0.269-0.154-0.534-0.316-0.797-0.481c-0.074-0.047-0.151-0.09-0.225-0.138c-0.679-0.439-1.336-0.917-1.967-1.432	c-0.065-0.053-0.127-0.11-0.191-0.164c-0.244-0.204-0.486-0.411-0.722-0.627c-0.095-0.087-0.187-0.178-0.28-0.266	c-0.2-0.19-0.4-0.381-0.594-0.578c-0.104-0.106-0.204-0.215-0.306-0.323c-0.12-0.128-0.239-0.258-0.357-0.389	c1.593-0.858,3.373-1.576,5.274-2.15c1.181,3.585,2.84,6.526,4.825,8.523c-0.093-0.027-0.185-0.054-0.278-0.082	C25.275,52.956,25.051,52.883,24.828,52.806z M15.912,17.001c0.12-0.13,0.24-0.261,0.363-0.388c0.169-0.174,0.343-0.341,0.516-0.508	c0.119-0.115,0.237-0.232,0.358-0.344c0.198-0.182,0.401-0.356,0.604-0.53c0.104-0.089,0.204-0.181,0.309-0.267	c0.304-0.25,0.614-0.492,0.93-0.725c0.025-0.018,0.049-0.035,0.074-0.053c0.308-0.225,0.621-0.441,0.939-0.649	c0.112-0.073,0.228-0.141,0.342-0.212c0.226-0.142,0.453-0.283,0.684-0.417c0.137-0.079,0.277-0.152,0.415-0.227	c0.213-0.116,0.426-0.233,0.642-0.342c0.15-0.076,0.303-0.147,0.455-0.219c0.21-0.1,0.421-0.199,0.634-0.292	c0.158-0.069,0.318-0.134,0.478-0.2c0.212-0.087,0.425-0.171,0.64-0.251c0.09-0.033,0.181-0.064,0.271-0.097	c-1.615,2.089-2.954,4.853-3.915,8.095c-1.819-0.549-3.528-1.222-5.06-2.024C15.698,17.235,15.805,17.118,15.912,17.001z M40.342,11.63c0.161,0.066,0.321,0.131,0.48,0.2c0.212,0.093,0.422,0.191,0.631,0.29c0.153,0.073,0.307,0.144,0.458,0.22	c0.215,0.108,0.426,0.223,0.636,0.339c0.141,0.077,0.282,0.151,0.421,0.231c0.228,0.132,0.452,0.271,0.676,0.411	c0.116,0.073,0.235,0.142,0.35,0.217c0.315,0.205,0.624,0.42,0.929,0.642c0.035,0.026,0.07,0.051,0.105,0.076	c0.308,0.227,0.61,0.462,0.906,0.706c0.112,0.092,0.219,0.19,0.33,0.285c0.197,0.169,0.394,0.337,0.585,0.513	c0.125,0.115,0.245,0.235,0.367,0.352c0.17,0.164,0.341,0.328,0.507,0.499c0.126,0.13,0.249,0.264,0.372,0.397	c0.105,0.114,0.209,0.229,0.313,0.345c-1.532,0.802-3.241,1.474-5.06,2.024c-0.961-3.242-2.3-6.006-3.915-8.095	c0.09,0.032,0.181,0.063,0.271,0.096C39.917,11.459,40.13,11.544,40.342,11.63z M44.987,30.5c-0.059-2.906-0.375-5.665-0.907-8.204	c2.229-0.666,4.301-1.52,6.173-2.552c2.168,3.216,3.429,6.885,3.687,10.756H44.987z M33.5,10.253	c2.881,0.978,5.398,4.719,6.931,9.872c-2.213,0.469-4.546,0.749-6.931,0.834V10.253z M30.5,20.96	c-2.385-0.085-4.718-0.366-6.931-0.834c1.533-5.153,4.05-8.893,6.931-9.872V20.96z M30.5,23.956V30.5h-8.488	c0.059-2.624,0.35-5.141,0.827-7.46C25.276,23.561,27.845,23.87,30.5,23.956z M30.5,33.5v6.546	c-2.575,0.086-5.072,0.388-7.444,0.898c-0.538-2.295-0.89-4.808-1.01-7.443L30.5,33.5L30.5,33.5z M30.5,43.042v9.705	c-2.697-0.916-5.074-4.253-6.625-8.902C25.997,43.398,28.224,43.126,30.5,43.042z M33.5,52.747v-9.705	c2.276,0.084,4.503,0.356,6.625,0.803C38.575,48.494,36.197,51.831,33.5,52.747z M33.5,40.046V33.5h8.453	c-0.119,2.636-0.471,5.149-1.009,7.443C38.572,40.433,36.075,40.131,33.5,40.046z M33.5,30.5v-6.544	c2.655-0.085,5.224-0.394,7.66-0.915c0.477,2.319,0.768,4.836,0.827,7.46L33.5,30.5L33.5,30.5z M19.92,22.295	c-0.532,2.54-0.848,5.299-0.907,8.205H10.06c0.258-3.871,1.519-7.54,3.687-10.756C15.619,20.775,17.691,21.629,19.92,22.295z M19.045,33.5c0.12,2.917,0.499,5.675,1.096,8.195c-2.284,0.689-4.407,1.58-6.32,2.663c-2.214-3.236-3.499-6.94-3.76-10.858H19.045z M43.859,41.695c0.597-2.52,0.977-5.278,1.096-8.195h8.984c-0.261,3.917-1.545,7.62-3.76,10.858	C48.266,43.275,46.143,42.384,43.859,41.695z"/></svg>