<svg xmlns="http://www.w3.org/2000/svg"  viewBox="0 0 64 64" width="64px" height="64px"><radialGradient id="VR8G6E76MDsS07bZNoCKDa" cx="30.745" cy="32.106" r="31.86" gradientTransform="matrix(1 0 0 -1 0 66)" gradientUnits="userSpaceOnUse"><stop offset="0" stop-color="#eed7a2"/><stop offset=".106" stop-color="#f1dcab"/><stop offset=".437" stop-color="#f8e8c3"/><stop offset=".744" stop-color="#fcefd2"/><stop offset="1" stop-color="#fef2d7"/></radialGradient><path fill="url(#VR8G6E76MDsS07bZNoCKDa)" d="M48.06,28.15c0.3,1.69,1.89,2.85,3.61,2.85h2.83c1.58,0,2.82,1.46,2.43,3.11	C56.66,35.25,55.55,36,54.38,36H49.5c-0.83,0-1.5,0.67-1.5,1.5s0.67,1.5,1.5,1.5h9c2,0,3.6,1.67,3.5,3.69	C61.9,44.58,60.2,46,58.3,46h-4.8c-0.83,0-1.5,0.67-1.5,1.5s0.67,1.5,1.5,1.5H54c1.1,0,2.1,0.45,2.83,1.17C57.55,50.9,58,51.9,58,53	c0,2.21-1.79,4-4,4H26v-4H9.5c-2,0-3.6-1.67-3.5-3.69C6.1,47.42,7.8,46,9.7,46h0.8c0.83,0,1.5-0.67,1.5-1.5S11.33,43,10.5,43H7	c-1.31,0-2.33-1.26-1.9-2.64C5.37,39.52,6.21,39,7.09,39h9.41c0.83,0,1.5-0.67,1.5-1.5S17.33,36,16.5,36h-12	c-1.47,0-2.63-1.25-2.49-2.75C2.13,31.95,3.33,31,4.64,31H16c1.21,0,2.17-1.07,1.97-2.33C17.81,27.69,16.89,27,15.89,27H7	c-1.83,0-3.29-1.64-2.96-3.54C4.3,22,5.68,21,7.17,21H19h12c0-2.21-1.79-4-4-4l0,0c-1.83,0-3.29-1.64-2.96-3.54	C24.3,12,25.68,11,27.17,11H29c1.31,0,2.33-1.26,1.9-2.64C30.63,7.52,29.79,7,28.91,7H28.5c-2.14,0-3.83-1.92-3.45-4.13	C25.35,1.17,26.97,0,28.7,0h30.8c2.14,0,3.83,1.92,3.45,4.13C62.65,5.83,61.03,7,59.3,7h-0.8C57.67,7,57,7.67,57,8.5	s0.67,1.5,1.5,1.5h2.88c1.17,0,2.27,0.74,2.55,1.88C64.32,13.53,63.08,15,61.5,15h-1c-0.83,0-1.5,0.67-1.5,1.5s0.67,1.5,1.5,1.5	h0.33c1.49,0,2.87,1,3.13,2.46C64.29,22.36,62.83,24,61,24h-9.5C49.35,24,47.66,25.93,48.06,28.15z"/><linearGradient id="VR8G6E76MDsS07bZNoCKDb" x1="228.98" x2="228.98" y1="413.856" y2="424.997" gradientTransform="scale(1 -1) rotate(-34.002 -585.85 512.01)" gradientUnits="userSpaceOnUse"><stop offset="0" stop-color="#155cde"/><stop offset=".122" stop-color="#196ae1"/><stop offset=".509" stop-color="#2493e9"/><stop offset=".815" stop-color="#2bacee"/><stop offset="1" stop-color="#2eb5f0"/></linearGradient><circle cx="38.5" cy="19.5" r="5.5" fill="url(#VR8G6E76MDsS07bZNoCKDb)"/><linearGradient id="VR8G6E76MDsS07bZNoCKDc" x1="26.812" x2="34.475" y1="16.937" y2="43.514" gradientTransform="matrix(1 0 0 -1 0 66)" gradientUnits="userSpaceOnUse"><stop offset="0" stop-color="#155cde"/><stop offset=".122" stop-color="#196ae1"/><stop offset=".509" stop-color="#2493e9"/><stop offset=".815" stop-color="#2bacee"/><stop offset="1" stop-color="#2eb5f0"/></linearGradient><path fill="url(#VR8G6E76MDsS07bZNoCKDc)" d="M53.49,42.19c-2.91,4.23-7.04,7.17-11.62,8.67c-0.4,0.13-0.8,0.25-1.21,0.36	C38.72,51.74,36.7,52,34.68,52c-3.64,0-7.3-0.86-10.68-2.64c-0.1-0.05-0.2-0.11-0.3-0.16c-0.57-0.31-1.12-0.65-1.68-1.01l-3.03-1.99	C12.39,41.82,8.88,34.62,9,27.35c0-0.12,0.01-0.23,0.01-0.35c0.13-4.05,1.4-8.1,3.87-11.71c0.58-0.84,1.53-1.29,2.49-1.29	c0.57,0,1.15,0.16,1.66,0.5L20.8,17l0.5,0.33l31.38,20.78C54.05,39.01,54.42,40.85,53.49,42.19z"/><linearGradient id="VR8G6E76MDsS07bZNoCKDd" x1="37.638" x2="49.638" y1="40.035" y2="65.396" gradientTransform="matrix(1 0 0 -1 0 66)" gradientUnits="userSpaceOnUse"><stop offset="0" stop-color="#155cde"/><stop offset=".122" stop-color="#196ae1"/><stop offset=".509" stop-color="#2493e9"/><stop offset=".815" stop-color="#2bacee"/><stop offset="1" stop-color="#2eb5f0"/></linearGradient><path fill="url(#VR8G6E76MDsS07bZNoCKDd)" d="M48.414,21.253c-0.069,0-0.14-0.005-0.211-0.015c-0.82-0.115-1.392-0.874-1.276-1.694	c0.279-1.984-0.231-3.958-1.437-5.558s-2.962-2.635-4.946-2.913c-0.913-0.13-1.83-0.091-2.721,0.114	c-0.809,0.188-1.612-0.319-1.798-1.126c-0.186-0.808,0.318-1.612,1.126-1.798c1.25-0.288,2.531-0.341,3.811-0.161	c2.777,0.39,5.236,1.839,6.924,4.078c1.688,2.24,2.402,5.004,2.012,7.781C49.792,20.711,49.149,21.253,48.414,21.253z"/><linearGradient id="VR8G6E76MDsS07bZNoCKDe" x1="38.826" x2="50.826" y1="39.472" y2="64.834" gradientTransform="matrix(1 0 0 -1 0 66)" gradientUnits="userSpaceOnUse"><stop offset="0" stop-color="#155cde"/><stop offset=".122" stop-color="#196ae1"/><stop offset=".509" stop-color="#2493e9"/><stop offset=".815" stop-color="#2bacee"/><stop offset="1" stop-color="#2eb5f0"/></linearGradient><path fill="url(#VR8G6E76MDsS07bZNoCKDe)" d="M54.365,20.948c-0.069,0-0.14-0.005-0.211-0.015c-0.82-0.115-1.392-0.874-1.276-1.694	c0.465-3.306-0.386-6.596-2.396-9.262c-2.009-2.667-4.937-4.392-8.243-4.855c-1.521-0.214-3.049-0.15-4.535,0.19	c-0.812,0.189-1.612-0.319-1.798-1.126c-0.186-0.808,0.319-1.612,1.126-1.798c1.846-0.425,3.737-0.504,5.626-0.237	c4.099,0.575,7.729,2.714,10.221,6.021c2.491,3.307,3.546,7.386,2.97,11.485C55.743,20.406,55.101,20.948,54.365,20.948z"/><linearGradient id="VR8G6E76MDsS07bZNoCKDf" x1="33" x2="33" y1="16.277" y2="40.766" gradientTransform="matrix(1 0 0 -1 0 66)" gradientUnits="userSpaceOnUse"><stop offset="0" stop-color="#155cde"/><stop offset=".183" stop-color="#1765e0"/><stop offset=".477" stop-color="#1e7ce5"/><stop offset=".844" stop-color="#29a3ec"/><stop offset="1" stop-color="#2eb5f0"/></linearGradient><path fill="url(#VR8G6E76MDsS07bZNoCKDf)" d="M42,50c0,0.3-0.04,0.59-0.13,0.86c-0.4,0.13-0.8,0.25-1.21,0.36C38.72,51.74,36.7,52,34.68,52	c-3.64,0-7.3-0.86-10.68-2.64V39h11.07c1.07,0,1.93,0.86,1.93,1.93v0.14c0,1.07-0.86,1.93-1.93,1.93H34c-0.55,0-1.05,0.22-1.41,0.59	C32.22,43.95,32,44.45,32,45c0,1.1,0.9,2,2,2h5C40.66,47,42,48.34,42,50z"/><linearGradient id="VR8G6E76MDsS07bZNoCKDg" x1="23.5" x2="23.5" y1="3.192" y2="25.152" gradientTransform="matrix(1 0 0 -1 0 66)" gradientUnits="userSpaceOnUse"><stop offset=".174" stop-color="#155cde"/><stop offset=".323" stop-color="#196ae1"/><stop offset=".509" stop-color="#2493e9"/><stop offset=".815" stop-color="#2bacee"/><stop offset="1" stop-color="#2eb5f0"/></linearGradient><path fill="url(#VR8G6E76MDsS07bZNoCKDg)" d="M23.5,39L23.5,39c3.59,0,6.5,2.91,6.5,6.5v11.245C30,56.886,29.886,57,29.745,57h-12.49	C17.114,57,17,56.886,17,56.745V45.5C17,41.91,19.91,39,23.5,39z"/><linearGradient id="VR8G6E76MDsS07bZNoCKDh" x1="23.5" x2="23.5" y1="4.372" y2="11.079" gradientTransform="matrix(1 0 0 -1 0 66)" gradientUnits="userSpaceOnUse"><stop offset="0" stop-color="#155cde"/><stop offset=".122" stop-color="#196ae1"/><stop offset=".509" stop-color="#2493e9"/><stop offset=".815" stop-color="#2bacee"/><stop offset="1" stop-color="#2eb5f0"/></linearGradient><path fill="url(#VR8G6E76MDsS07bZNoCKDh)" d="M30.5,55h-14c-1.933,0-3.5,1.567-3.5,3.5l0,0c0,1.933,1.567,3.5,3.5,3.5h14	c1.933,0,3.5-1.567,3.5-3.5l0,0C34,56.567,32.433,55,30.5,55z"/><linearGradient id="VR8G6E76MDsS07bZNoCKDi" x1="23.5" x2="23.5" y1="16.279" y2="33.676" gradientTransform="matrix(1 0 0 -1 0 66)" gradientUnits="userSpaceOnUse"><stop offset="0" stop-color="#155cde"/><stop offset=".122" stop-color="#196ae1"/><stop offset=".509" stop-color="#2493e9"/><stop offset=".815" stop-color="#2bacee"/><stop offset="1" stop-color="#2eb5f0"/></linearGradient><circle cx="23.5" cy="45.5" r="2.5" fill="url(#VR8G6E76MDsS07bZNoCKDi)"/><linearGradient id="VR8G6E76MDsS07bZNoCKDj" x1="42" x2="42" y1="16.021" y2="37.49" gradientTransform="matrix(1 0 0 -1 0 66)" gradientUnits="userSpaceOnUse"><stop offset="0" stop-color="#155cde"/><stop offset=".183" stop-color="#1765e0"/><stop offset=".477" stop-color="#1e7ce5"/><stop offset=".844" stop-color="#29a3ec"/><stop offset="1" stop-color="#2eb5f0"/></linearGradient><circle cx="42" cy="41" r="2" fill="url(#VR8G6E76MDsS07bZNoCKDj)"/><linearGradient id="VR8G6E76MDsS07bZNoCKDk" x1="15.507" x2="15.507" y1="13.745" y2="47.347" gradientTransform="matrix(1 0 0 -1 0 66)" gradientUnits="userSpaceOnUse"><stop offset="0" stop-color="#236ee3"/><stop offset=".122" stop-color="#287ce6"/><stop offset=".509" stop-color="#36a1ec"/><stop offset=".815" stop-color="#3eb7f0"/><stop offset="1" stop-color="#41bff2"/></linearGradient><path fill="url(#VR8G6E76MDsS07bZNoCKDk)" d="M22,24.16C21.91,25.78,20.46,27,18.83,27H9.01c0.13-4.05,1.4-8.1,3.87-11.71	c0.58-0.84,1.53-1.29,2.49-1.29c0.57,0,1.15,0.16,1.66,0.5L20.8,17H17c-1.1,0-2,0.9-2,2s0.9,2,2,2h2C20.71,21,22.08,22.42,22,24.16z"/></svg>