<svg xmlns="http://www.w3.org/2000/svg"  viewBox="0 0 64 64" width="64px" height="64px"><radialGradient id="LFtF6n00Di6h9QaaPbIFqa" cx="32" cy="32" r="32" gradientUnits="userSpaceOnUse" spreadMethod="reflect"><stop offset="0" stop-color="#f4e9c3"/><stop offset=".219" stop-color="#f8eecd"/><stop offset=".644" stop-color="#fdf4dc"/><stop offset="1" stop-color="#fff6e1"/></radialGradient><path fill="url(#LFtF6n00Di6h9QaaPbIFqa)" d="M0,4L0,4c0-2.209,1.791-4,4-4h0c2.209,0,4,1.791,4,4v0c0,2.209-1.791,4-4,4h0 C1.791,8,0,6.209,0,4z M59.5,25h-1c-1.933,0-3.5,1.567-3.5,3.5v0c0,1.933,1.567,3.5,3.5,3.5H60c2.209,0,4,1.791,4,4v0 c0,2.209-1.791,4-4,4h-7.5c-1.381,0-2.5,1.119-2.5,2.5v0c0,1.381,1.119,2.5,2.5,2.5H54c2.209,0,4,1.791,4,4v0c0,2.209-1.791,4-4,4 h-5c-1.105,0-2,0.895-2,2v0c0,1.105,0.895,2,2,2h0.5c1.933,0,3.5,1.567,3.5,3.5v0c0,1.933-1.567,3.5-3.5,3.5h-37 C10.567,64,9,62.433,9,60.5v0c0-1.933,1.567-3.5,3.5-3.5h0c1.381,0,2.5-1.119,2.5-2.5v0c0-1.381-1.119-2.5-2.5-2.5H9 c-2.209,0-4-1.791-4-4v0c0-2.209,1.791-4,4-4h0.5c1.933,0,3.5-1.567,3.5-3.5v0c0-1.933-1.567-3.5-3.5-3.5H5c-2.761,0-5-2.239-5-5v0 c0-2.761,2.239-5,5-5h2c1.657,0,3-1.343,3-3v0c0-1.657-1.343-3-3-3H5.5C3.567,21,2,19.433,2,17.5v0C2,15.567,3.567,14,5.5,14H17 c1.657,0,3-1.343,3-3v0c0-1.657-1.343-3-3-3h-2c-2.209,0-4-1.791-4-4v0c0-2.209,1.791-4,4-4l36,0c2.209,0,4,1.791,4,4v0 c0,2.209-1.791,4-4,4h-2c-2.209,0-4,1.791-4,4v0c0,2.209,1.791,4,4,4h10.5c2.485,0,4.5,2.015,4.5,4.5v0C64,22.985,61.985,25,59.5,25 z M59.5,64L59.5,64c1.933,0,3.5-1.567,3.5-3.5v0c0-1.933-1.567-3.5-3.5-3.5h0c-1.933,0-3.5,1.567-3.5,3.5v0 C56,62.433,57.567,64,59.5,64z"/><linearGradient id="LFtF6n00Di6h9QaaPbIFqb" x1="32" x2="32" y1="65.153" y2="18.8" gradientUnits="userSpaceOnUse" spreadMethod="reflect"><stop offset="0" stop-color="#3280e5"/><stop offset=".076" stop-color="#3487e6"/><stop offset=".449" stop-color="#3ca4ed"/><stop offset=".77" stop-color="#41b7f1"/><stop offset="1" stop-color="#43bdf2"/></linearGradient><path fill="url(#LFtF6n00Di6h9QaaPbIFqb)" d="M41.35,9.91c-0.15-0.07-0.3-0.13-0.45-0.19c-0.79-0.3-1.58,0.49-1.29,1.28 c0.53,1.46,1.23,3.4,1.69,4.65c0.26,0.71,0.69,1.36,1.27,1.81C47.07,20.74,50,26.04,50,32c0,9.9-8.1,18-18,18s-18-8.1-18-18 c0-5.82,2.79-11.01,7.11-14.28c0.1-0.09,0.2-0.17,0.31-0.25c0.01-0.02,0.02-0.02,0.03-0.03c0.57-0.43,0.99-1.04,1.24-1.72 c0.45-1.25,1.18-3.23,1.72-4.72c0.29-0.81-0.51-1.6-1.3-1.28c-0.19,0.07-0.38,0.15-0.57,0.24C14.01,13.64,8,22.15,8,32 c0,13.2,10.8,24,24,24s24-10.8,24-24C56,22.11,49.94,13.57,41.35,9.91z"/><linearGradient id="LFtF6n00Di6h9QaaPbIFqc" x1="32" x2="32" y1="44.232" y2="-26.77" gradientUnits="userSpaceOnUse" spreadMethod="reflect"><stop offset="0" stop-color="#155cde"/><stop offset=".278" stop-color="#1f7fe5"/><stop offset=".569" stop-color="#279ceb"/><stop offset=".82" stop-color="#2cafef"/><stop offset="1" stop-color="#2eb5f0"/></linearGradient><path fill="url(#LFtF6n00Di6h9QaaPbIFqc)" d="M32,46L32,46c1.657,0,3,1.343,3,3v9c0,1.657-1.343,3-3,3h0c-1.657,0-3-1.343-3-3v-9 C29,47.343,30.343,46,32,46z M6,29h9c1.657,0,3,1.343,3,3v0c0,1.657-1.343,3-3,3H6c-1.657,0-3-1.343-3-3v0C3,30.343,4.343,29,6,29z M49,29h9c1.657,0,3,1.343,3,3v0c0,1.657-1.343,3-3,3h-9c-1.657,0-3-1.343-3-3v0C46,30.343,47.343,29,49,29z"/><linearGradient id="LFtF6n00Di6h9QaaPbIFqd" x1="32" x2="32" y1="26" y2="-4.842" gradientUnits="userSpaceOnUse" spreadMethod="reflect"><stop offset="0" stop-color="#ff634d"/><stop offset=".204" stop-color="#fe6464"/><stop offset=".521" stop-color="#fc6581"/><stop offset=".794" stop-color="#fa6694"/><stop offset=".989" stop-color="#fa669a"/></linearGradient><path fill="url(#LFtF6n00Di6h9QaaPbIFqd)" d="M32.012,3c-0.897,0-1.699,0.562-2.007,1.406l-6.887,18.888 c-0.263,0.737-0.078,1.56,0.474,2.113l0,0c0.645,0.646,1.641,0.779,2.433,0.326L32.015,22l5.96,3.733 c0.792,0.453,1.788,0.319,2.433-0.326l0,0c0.552-0.553,0.737-1.376,0.474-2.113L34.024,4.408C33.717,3.563,32.915,3,32.016,3H32.012 z"/></svg>