<svg xmlns="http://www.w3.org/2000/svg"  viewBox="0 0 64 64" width="64px" height="64px"><radialGradient id="YTsj0W_LqIQ1y0iUst1w9a" cx="32.5" cy="33.5" r="37.95" gradientTransform="matrix(1 0 0 -1 0 66)" gradientUnits="userSpaceOnUse"><stop offset="0" stop-color="#f4e9c3"/><stop offset=".219" stop-color="#f8eecd"/><stop offset=".644" stop-color="#fdf4dc"/><stop offset="1" stop-color="#fff6e1"/></radialGradient><path fill="url(#YTsj0W_LqIQ1y0iUst1w9a)" d="M45.5,21h15c2.17,0,3.89-2,3.42-4.24C63.58,15.12,62.05,14,60.38,14h-2.92	c-1.36,0-2.27-0.68-2.43-1.66C54.82,11.08,55.79,10,57,10h1.38c1.67,0,3.2-1.12,3.54-2.76C62.39,5,60.67,3,58.5,3H6.61	C4.94,3,3.42,4.12,3.08,5.76C2.61,8,4.33,10,6.5,10h0.39c1,0,1.92,0.68,2.08,1.66C9.18,12.92,8.21,14,7,14H4.62	c-1.67,0-3.2,1.12-3.54,2.76C0.61,19,2.33,21,4.5,21H18v9H8c-2.76,0-5,2.24-5,5c0,0.28,0.02,0.55,0.07,0.81	c0.17,1.06,0.67,2,1.39,2.73C5.37,39.44,6.62,40,8,40h6.89c1,0,1.92,0.68,2.08,1.66C17.18,42.92,16.21,44,15,44H4.5	c-2.17,0-3.89,2-3.42,4.24C1.42,49.88,2.95,51,4.62,51h2c1.27,0,2.19,0.68,2.35,1.66C9.18,53.92,8.21,55,7,55H5.62	c-1.67,0-3.2,1.12-3.54,2.76C1.61,60,3.33,62,5.5,62h51.89c1.67,0,3.19-1.12,3.53-2.76C61.39,57,59.67,55,57.5,55h-0.39	c-1,0-1.92-0.68-2.08-1.66C54.82,52.08,55.79,51,57,51h2.38c1.67,0,3.2-1.12,3.54-2.76C63.39,46,61.67,44,59.5,44h-14	c-1.93,0-3.5-1.57-3.5-3.5c0-0.96,0.39-1.84,1.03-2.47C43.66,37.39,44.54,37,45.5,37h12c2.49,0,4.5-2.01,4.5-4.5v-0.05	c-0.01-0.07-0.02-0.15-0.03-0.23C61.83,29.87,59.89,28,57.5,28h-12c-0.96,0-1.84-0.39-2.47-1.03C42.39,26.34,42,25.46,42,24.5	C42,22.57,43.57,21,45.5,21z"/><linearGradient id="YTsj0W_LqIQ1y0iUst1w9b" x1="32" x2="32" y1="6.806" y2="58.467" gradientTransform="matrix(1 0 0 -1 0 66)" gradientUnits="userSpaceOnUse"><stop offset="0" stop-color="#155cde"/><stop offset=".122" stop-color="#196ae1"/><stop offset=".509" stop-color="#2493e9"/><stop offset=".815" stop-color="#2bacee"/><stop offset="1" stop-color="#2eb5f0"/></linearGradient><rect width="6" height="46" x="29" y="10" fill="url(#YTsj0W_LqIQ1y0iUst1w9b)"/><linearGradient id="YTsj0W_LqIQ1y0iUst1w9c" x1="32" x2="32" y1="3.445" y2="12.429" gradientTransform="matrix(1 0 0 -1 0 66)" gradientUnits="userSpaceOnUse"><stop offset="0" stop-color="#155cde"/><stop offset=".122" stop-color="#196ae1"/><stop offset=".509" stop-color="#2493e9"/><stop offset=".815" stop-color="#2bacee"/><stop offset="1" stop-color="#2eb5f0"/></linearGradient><path fill="url(#YTsj0W_LqIQ1y0iUst1w9c)" d="M30.667,54h2.667c2.946,0,5.333,2.388,5.333,5.333l0,0C38.667,60.806,37.473,62,36,62h-8	c-1.473,0-2.667-1.194-2.667-2.667l0,0C25.333,56.388,27.721,54,30.667,54z"/><linearGradient id="YTsj0W_LqIQ1y0iUst1w9d" x1="32" x2="32" y1="51.167" y2="64.644" gradientTransform="matrix(1 0 0 -1 0 66)" gradientUnits="userSpaceOnUse"><stop offset="0" stop-color="#155cde"/><stop offset=".122" stop-color="#196ae1"/><stop offset=".509" stop-color="#2493e9"/><stop offset=".815" stop-color="#2bacee"/><stop offset="1" stop-color="#2eb5f0"/></linearGradient><circle cx="32" cy="8" r="6" fill="url(#YTsj0W_LqIQ1y0iUst1w9d)"/><linearGradient id="YTsj0W_LqIQ1y0iUst1w9e" x1="33" x2="33" y1="19.277" y2="60.557" gradientTransform="matrix(1 0 0 -1 0 66)" gradientUnits="userSpaceOnUse"><stop offset="0" stop-color="#ff634d"/><stop offset=".204" stop-color="#fe6464"/><stop offset=".521" stop-color="#fc6581"/><stop offset=".794" stop-color="#fa6694"/><stop offset=".989" stop-color="#fa669a"/><stop offset="1" stop-color="#fa669a"/></linearGradient><path fill="url(#YTsj0W_LqIQ1y0iUst1w9e)" d="M53.544,25.59l-2.847,4.5c-0.76,1.2-1.996,1.91-3.302,1.91H15.039	C13.357,32,12,30.46,12,28.57v-9.14c0-1.89,1.357-3.43,3.039-3.43h32.356c1.307,0,2.543,0.71,3.302,1.91l2.847,4.5	C54.152,23.38,54.152,24.62,53.544,25.59z"/><linearGradient id="YTsj0W_LqIQ1y0iUst1w9f" x1="31" x2="31" y1="35.775" y2="7.201" gradientTransform="matrix(1 0 0 -1 0 66)" gradientUnits="userSpaceOnUse"><stop offset="0" stop-color="#42d778"/><stop offset=".996" stop-color="#34b171"/><stop offset="1" stop-color="#34b171"/></linearGradient><path fill="url(#YTsj0W_LqIQ1y0iUst1w9f)" d="M16.605,35h32.356C50.639,35,52,36.535,52,38.429v9.143C52,49.465,50.639,51,48.961,51H16.605	c-1.309,0-2.537-0.713-3.297-1.914l-2.846-4.496c-0.616-0.973-0.616-2.207,0-3.18l2.846-4.496C14.069,35.713,15.297,35,16.605,35z"/><linearGradient id="YTsj0W_LqIQ1y0iUst1w9g" x1="19" x2="19" y1="17.83" y2="28.939" gradientTransform="matrix(1 0 0 -1 0 66)" gradientUnits="userSpaceOnUse"><stop offset="0" stop-color="#ff724e"/><stop offset=".214" stop-color="#fe7366"/><stop offset=".524" stop-color="#fc7383"/><stop offset=".793" stop-color="#fb7495"/><stop offset=".989" stop-color="#fb749b"/><stop offset="1" stop-color="#fb749b"/></linearGradient><path fill="url(#YTsj0W_LqIQ1y0iUst1w9g)" d="M25.996,19.156C25.915,20.779,24.461,22,22.835,22H18c-1.105,0-2,0.895-2,2l0,0	c0,1.105,0.895,2,2,2h0.835c1.625,0,3.079,1.221,3.161,2.844C22.083,30.575,20.712,32,19,32h-4c-1.66,0-3-1.54-3-3.43v-9.14	c0-1.89,1.34-3.43,3-3.43h8C24.712,16,26.083,17.425,25.996,19.156z"/><linearGradient id="YTsj0W_LqIQ1y0iUst1w9h" x1="45" x2="45" y1="44.745" y2="15.821" gradientTransform="matrix(1 0 0 -1 0 66)" gradientUnits="userSpaceOnUse"><stop offset="0" stop-color="#42d778"/><stop offset=".959" stop-color="#34b171"/><stop offset=".996" stop-color="#34b171"/></linearGradient><path fill="url(#YTsj0W_LqIQ1y0iUst1w9h)" d="M38.004,47.844C38.085,46.221,39.539,45,41.165,45H46c1.105,0,2-0.895,2-2l0,0	c0-1.105-0.895-2-2-2h-0.835c-1.625,0-3.079-1.221-3.161-2.844C41.917,36.425,43.288,35,45,35h4c1.66,0,3,1.54,3,3.43v9.14	c0,1.89-1.34,3.43-3,3.43h-8C39.288,51,37.917,49.575,38.004,47.844z"/><linearGradient id="YTsj0W_LqIQ1y0iUst1w9i" x1="33" x2="33" y1="17.83" y2="28.939" gradientTransform="matrix(1 0 0 -1 0 66)" gradientUnits="userSpaceOnUse"><stop offset="0" stop-color="#ff724e"/><stop offset=".214" stop-color="#fe7366"/><stop offset=".524" stop-color="#fc7383"/><stop offset=".793" stop-color="#fb7495"/><stop offset=".989" stop-color="#fb749b"/><stop offset="1" stop-color="#fb749b"/></linearGradient><circle cx="33" cy="19" r="3" fill="url(#YTsj0W_LqIQ1y0iUst1w9i)"/></svg>